<?xml version="1.0" encoding="utf-8"?>
<!-- Generator: Adobe Illustrator 21.0.0, SVG Export Plug-In . SVG Version: 6.00 Build 0)  -->
<svg version="1.1" id="图层_1" xmlns="http://www.w3.org/2000/svg" xmlns:xlink="http://www.w3.org/1999/xlink" x="0px" y="0px"
	 viewBox="0 0 24.9 24.9" style="enable-background:new 0 0 24.9 24.9;" xml:space="preserve">
<style type="text/css">
	.st0{fill:#FFFFFF;}
</style>
<path id="cart_1_" class="st0" d="M18.8,4.1h4v-2c-5,0-3.8,0-6,0v4c-4.4,0-7.2,0-12,0c0,3.2,0-0.9,0,10.2c-1,0.4-2,1.5-2,2.8
	c0,1.7,1.3,3,3,3s3-1.3,3-3c0-1.3-1-2.4-2-2.8v-0.2h10v0.2c-1,0.4-2,1.5-2,2.8c0,1.7,1.3,3,3,3s3-1.3,3-3c0-1.3-1-2.4-2-2.8
	C18.8,6,18.8,8,18.8,4.1z M5.7,20.1c-0.6,0-1-0.4-1-1s0.4-1,1-1s1,0.4,1,1S6.3,20.1,5.7,20.1z M6.8,14.1v-6h10v6H6.8z M17.7,20.1
	c-0.6,0-1-0.4-1-1s0.4-1,1-1s1,0.4,1,1S18.3,20.1,17.7,20.1z"/>
<g>
</g>
<g>
</g>
<g>
</g>
<g>
</g>
<g>
</g>
<g>
</g>
<g>
</g>
<g>
</g>
<g>
</g>
<g>
</g>
<g>
</g>
<g>
</g>
<g>
</g>
<g>
</g>
<g>
</g>
</svg>
