<?xml version="1.0" encoding="utf-8"?>
<!-- Generator: Adobe Illustrator 21.0.0, SVG Export Plug-In . SVG Version: 6.00 Build 0)  -->
<svg version="1.1" id="图层_1" xmlns="http://www.w3.org/2000/svg" xmlns:xlink="http://www.w3.org/1999/xlink" x="0px" y="0px"
	 viewBox="0 0 136 101" style="enable-background:new 0 0 136 101;" xml:space="preserve">
<style type="text/css">
	.st0{fill:#B24F38;}
	.st1{fill:#FFFFFF;}
	.st2{fill:#DD7150;}
</style>
<g>
	<g>
		<g>
			
				<rect x="50.7" y="-20.3" transform="matrix(2.805413e-03 -1 1 2.805413e-03 50.472 86.6434)" class="st0" width="36" height="76.6"/>
		</g>
		
			<rect x="62.7" y="-20.3" transform="matrix(-2.805413e-03 1 -1 -2.805413e-03 86.8868 -50.6138)" class="st1" width="12" height="76.6"/>
	</g>
	<g>
		<g>
			
				<rect x="43.4" y="31.1" transform="matrix(0.6226 -0.7825 0.7825 0.6226 -3.8475 90.1247)" class="st2" width="96.3" height="36"/>
		</g>
		
			<rect x="85.5" y="0.9" transform="matrix(0.7825 0.6226 -0.6226 0.7825 50.4432 -46.3126)" class="st1" width="12" height="96.3"/>
	</g>
	<g>
		<g>
			
				<rect x="27.5" y="0.9" transform="matrix(0.7927 -0.6096 0.6096 0.7927 -20.4662 37.9126)" class="st2" width="36" height="96.3"/>
		</g>
		
			<rect x="39.5" y="0.9" transform="matrix(-0.7927 0.6096 -0.6096 -0.7927 111.4992 60.1901)" class="st1" width="12" height="96.3"/>
	</g>
</g>
<g>
</g>
<g>
</g>
<g>
</g>
<g>
</g>
<g>
</g>
<g>
</g>
<g>
</g>
<g>
</g>
<g>
</g>
<g>
</g>
<g>
</g>
<g>
</g>
<g>
</g>
<g>
</g>
<g>
</g>
</svg>
