<?xml version="1.0" encoding="utf-8"?>
<!-- Generator: Adobe Illustrator 21.0.0, SVG Export Plug-In . SVG Version: 6.00 Build 0)  -->
<svg version="1.1" id="图层_1" xmlns="http://www.w3.org/2000/svg" xmlns:xlink="http://www.w3.org/1999/xlink" x="0px" y="0px"
	 viewBox="0 0 375 667" style="enable-background:new 0 0 375 667;" xml:space="preserve">
<style type="text/css">
	.st0{fill:#FFFFFF;}
	.st1{fill:#231815;}
</style>
<g>
	<path class="st0" d="M171.6,119.8c0-0.1-0.2-3.7-0.3-3.8c0-2.8,0-3,0.1-3.6l0.2-0.1l-0.2-0.2c-0.4-4.5-0.4-7.6-0.4-13
		c0-1.2-0.3-2.5-0.3-3.9c0-0.8,0.1-2,0.1-2.9c-0.3-1,0-3.2-0.3-3.3c-0.1-0.5,0.2-1.4,0.3-1.7c0.1-0.3-0.8-0.8-0.8-2.2
		c-0.2-0.4-1.4-0.7-1.3-1.4c0-0.4,0.8-0.5,1.2-0.5c0.2,0,0.4,0,0.7,0c0.3,0,0.7-0.1,1.1-0.4c0.6,0.1,1.5-0.1,2.2,0.3
		c0.7,0.5,1,0.8,2,0.8c0.3,0,2.7-0.1,2.9-0.1c0.2,0,0.8-0.3,0.8-0.3c1.2,0.6,2.8-2.2,3.7-2.2c0.8,0,1.1,0.8,1.4,1.3
		c0.7,0.8,1.3,1.1,1.3,2.3c0,1.2-2,0.8-2,2.8c0,0.7,0.3,1.2,0.3,1.8c0,1.1,0.1,2.3,0.1,2.6c0,0.4,0,1.4,0,2.3
		c-0.1,0.3-0.3,0.4-0.3,0.7c-0.9,0-1,0.1-1.8-0.3c-0.6,0-0.7,0.5-1.1,0.6c-0.2,0-0.8,0-1,0c-0.1,0-0.4,0.3-0.6,0.3
		c-1.4,0-2.6,0.3-3.9,0.3c-0.4,0-1.7,0.5-1.7,0.6c0,0.8-0.1,1.7-0.1,2.4c0,0.1,0.1,0.6,0.3,0.6c0,3.1,0.3,10.2,0.3,12.4
		c0.1,0.1-0.2,0.7-0.2,1.8c-0.1,1.4-0.1,2.7-0.1,4.1c0,0.1-0.2,0.9-0.2,1.1l0.2,0.3l0.1,1.8c-0.5,0.8-1,1.3-1.8,1.3
		c-0.8-0.4-1-0.1-1-1C171.4,120.9,171.6,120.4,171.6,119.8z M173.9,89.1c0,0.5,0.3,0.8,1.1,0.8c1.4,0.1,2.8-0.6,4.2-0.8
		c1.7,0.4,1.7-1.2,1.7-2.3c0-0.6-0.4-1.6-1.1-1.5c-0.3,0-2.4,0.4-2.7,0.4h-0.4c0.3,0-3.3,0.3-3.3,1.4
		C173.4,87.3,173.9,88.7,173.9,89.1z M176.8,94.9c0.2,0,0.8-0.1,0.8-0.1c0.2,0,1.8-0.6,3-0.6c0.4-0.3,0.3-1.4,0.3-2.8
		c-0.2,0-0.6-0.5-0.8-0.5c-0.5-0.2-0.8-0.2-1.2-0.5c-0.8-0.1-1.8,0.8-2.7,0.9c-0.1,0-0.9,0-1.1,0c-0.1,0-0.9,0.3-1.1,0.3
		c-0.3,0,0,1.6-0.3,1.7c0,0.4,0.1,1,0.5,1.4C174.5,94.9,176.4,94.9,176.8,94.9z M189.1,115.8c0-0.3,0.1-0.8,0.1-1.1
		c0-1.4-0.4-2.7-0.8-3.9l-0.6,0.1c-1.1,0-1.1-0.1-1.6-0.1c-0.6,0-1.3,0.4-1.8,0.4c-0.1,0-0.7,0-0.8,0c-1.6,0-0.7,3.2-2.3,3.2
		c-0.4-0.2-0.6-0.7-0.8-0.8c0-0.7-0.6-1.1-0.6-2c-0.1-1.1,0-2.3-0.1-3.4c-0.4,0,0.1-2.8-0.8-2.8c-1.3,0-1.4,0.7-2,0.7
		c-0.4,0-0.7-0.4-0.6-0.7l1.5-1.6c0.5,0,0.6-0.7,0.8-0.8l0.1-0.1l0.8-0.6c0.7-0.7,2.5-4.1,3.4-4.1c0.6,0,0.6,0.4,0.8,0.8
		c0.3,0.4,0.7,0.6,0.7,1.2c0,0.5-0.7,0.6-1,0.8c-0.3,0.6-0.3,0.8-1.1,1c-0.1,0.7-1.3,1.2-1.3,1.6c0,0.8,1.2,1,1.7,1.1
		c0.3,0.2,0.6,0.1,0.6,0.1c1.3-0.3,3.1-0.6,4.4-0.6c0.3,0,0.4,0.1,0.7,0.1c-0.1,0,1.1-0.6,1.6-1.3c1.3,0.3,3.9,2.1,3.7,3.1
		c0,0.1-0.3,1.4-0.3,1.6c0,1-0.2,2.3-0.2,2.4c-0.5,0-0.8-0.1-1.1-0.1c-0.8,0-0.6,0.6-1.4,0.6c0.4,0.6,0.4,1.4,0.4,2
		c0,0.3-0.1,0.6-0.1,0.8c0.6,2.1,0.1,3.3,2.2,3.3c0.3,0,0.7-0.2,1.1-0.2c0.4,0,0.6,0,0.8,0.3c0.3-0.6,0.8-1.1,1.1-1.7
		c0.1-0.3,0.3-1.7,0.8-1.7c0.7,0.5,0.3,1.6,0.6,2.3c0,0.8,0.7,1.6,0.7,2.4c0.3,0.1-0.6,0.8-0.8,0.9c0,0-0.4,0-0.6-0.1l-0.1,0.1h-1.6
		c-0.1-0.1-0.5-0.1-0.7-0.1v0.3c-0.4,0-1.6,0-1.7,0.1c-1.2,0.1-1.3-0.3-1.7-0.3c-0.4,0-0.6,0.3-0.8,0.3c-0.7,0-0.8-0.4-1-0.6v-2.8
		C189.1,116,189.1,115.9,189.1,115.8z M180.4,119.2c0.3-0.3,0.9-1.1,0.9-1.1c0.2-0.2,1.3-1.9,1.5-2c0.5-0.9,0.9-1.3,1.4-2
		c0.1-0.3,0.3-1.3,0.8-1.3c0.4,0,1.4,1.6,1.4,1.9c0,0-0.7,1-2,2.3c-2.1,1.6-3.8,3.8-6.3,5.2c-0.4,0.3-0.9,0.8-1.7,0.8
		c0-0.2-0.1-0.2-0.1-0.5C176.4,122.3,179.9,119.5,180.4,119.2z M180.2,89.5c0,0,0,0.1,0.1,0.1c0,0,0,0,0-0.1c0-0.1,0-0.2,0-0.2
		C180.2,89.3,180.2,89.4,180.2,89.5z M183.3,109.8c2.3-0.1,4.4-0.7,6.6-0.8c0.3-0.4,0.4-1.1,0.4-1.6c0-0.3,0-2.1-0.4-2.1
		c-0.1,0-0.8,0.3-1,0.3c-0.4,0-2.1,0.3-2.5,0.3h-0.3c-0.1,0-1.7,0.4-2.7,0.4c-0.7,0-0.8,0.7-0.8,1.1
		C182.6,108.2,182.6,109.2,183.3,109.8z M187.6,98.6c-0.7,0-1.3,0-1.3-0.7c0.1-0.2,0.4-0.5,0.6-0.6c0.3,0,0.5,0,0.8,0
		c0.9,0,1.9-0.2,2.6-0.5c0.1,0,0.7-0.4,0.8-0.4c1.8-0.1,1.4,0.9,1.6,2.1c0,0.3,0.3,1.3,0.3,1.6c0.5,0.4,2.8,2.6,4.2,3
		c0.8,0,2.4,0,2.4,0.7c0,0.7-1.1,0.4-1.4,0.8c-1.6,0-1.9,0.7-3,0.7c-0.7,0-1.2-1-1.7-1.3c-0.4-0.1-0.7-0.4-0.8-0.8
		c0-0.4-0.8-0.8-0.8-1.6c-0.6-0.9-0.8-1.2-0.8-1.8c0-0.2,0-0.3,0-0.5c0-0.5,0-0.8-0.6-1.1C189.3,98.3,188.4,98.6,187.6,98.6z
		 M201.6,118.9c0-0.2-0.2-0.8-0.2-0.8c-0.1-1.1,0.3-1.3,0.3-1.6v-0.7c-0.4,0-0.6-4.2-0.7-5.5c0-0.1,0.1-0.5,0.1-0.6l-0.1-0.4v-2.5
		l-0.2-0.4v-3.5l-0.3-0.3v-2.5c-0.5-0.8,0-4.6-1.1-4.8c-2.3,0-2.5,0.1-5.4,0.1c0,0.2-0.4,0.3-0.6,0.3c-0.1,0-0.6-0.1-0.7-0.1
		c-0.4-0.1-1.4,0.1-2.4,0.1c-0.9,0-1.7-1.5-1.7-2.3c0-0.3,0-0.3,0.3-0.6l-0.1-0.2c0,0,0.1-0.5,0.3-0.7l-0.1-0.3
		c-0.1-0.8,0.4-0.7,0.3-1.2c-0.3-0.1-0.1-2.1-0.4-2.5c0-0.7,0.1-1.2,0.1-2c0-0.3-0.1-0.6-0.3-0.9c0.2-0.6-0.6-0.9-0.6-1.4
		c0-0.2-0.1-0.3-0.1-0.3c0-0.8,1.3-0.8,1.7-0.8c0.7,0,1.5,0.5,3.2,0.5c1,0,4.8,0.4,5.8-0.3c0.1,0,0.9-0.8,1.1-0.8
		c1.1-0.4,0.6-1.1,1.5-1.1c0.8,0,1.4,0.6,2.2,0.8c0.4,0.6,1.7,0.4,1.7,1.6c0,0.8,0,0.8-1,0.8c-0.1,0.6-1.2,0.9-1.6,1.1
		c0,0.1,0,1.1,0,1.4c-0.2,0.2-0.3,0.7-0.3,1.1c-0.1,0.8,0.4,2,0.4,3.2c0,1.7-0.1,2.7-0.1,4c0,0.4,0.3,1.1,0.3,2.8
		c0,0.8,0.5,1.8,0.3,2.3c0.1,1.5,0.4,6.6,0.4,7c0.8,1.9,0.8,3.9,0.9,6.1c0,0.2,0.1,1,0.1,1.1c0,0.8,0,1.2-0.1,1.4
		c0.1,0,0.4,0.8,0.3,1c-0.4,0.6,0.2,2.5-0.6,3.2c0.2,0.5-0.6,0.8-0.6,1.3c-1.1,0.6-0.4,1.1-1.2,1.1c-0.3,0-0.8-0.3-0.8-0.8
		C201.6,121.1,201.6,119.2,201.6,118.9z M192.6,89.1c1.3,0,1.9-0.4,4.2-0.4c0.6,0,2.8-0.6,2.8-1.3c0-0.4-0.1-0.7-0.1-1.1
		c0-0.4,0-0.6,0.1-0.8c-0.1-0.8-0.4-1.4-1.2-1.4c-2,0-6.4-0.6-6.4,2.3C192.3,87,192.1,89,192.6,89.1z M194.2,94
		c0.1,0,0.7-0.2,0.7-0.2c1.7-0.2,2.4-0.4,3.1-0.4c1.1-0.2,1.3,0.2,1.7-1.4c-0.1-0.1-0.1-1.8-0.6-1.8c-0.9-0.1-1.4,0-1.8-0.3
		c-0.3,0.1-1.7,0.4-2,0.6h-3c0,0-0.3,0.2-0.3,0.3c0,0.2,0,0.2,0,0.2c0,0.1,0.4,1.4,0.4,1.6c0.1,0.6,0,0.7,0.4,1.2
		C193.4,93.8,194.2,94,194.2,94z"/>
	<path class="st0" d="M166.6,137c2.1,0,4.6,0.3,5.3,0.3h3.4c0.3-0.1,0.4-0.1,0.7-0.1c0.2,0,0.3,0,0.6,0.1c0.6,0,2.8,0.1,3.4,0.1
		c1.1,0,2.4-0.3,2.9-1.4c0.3-0.4,0.1-1.1,0.8-1.1c1.2,0.8,2.3,2.2,2.3,3.2c0,1.2-1,0.8-1.9,1c-0.1,0-0.9,0.3-1.1,0.3
		c-0.9,0.1-1.6,0.1-2.7,0.1s-2.1-0.1-3.1-0.1c-0.4,0-0.8,0-1.1,0.1h-6.6c-1,0-1.8,0.4-2.8,0.4c-0.8,0-0.8-0.7-1-1.3
		c-0.1-0.3-0.4-0.6-0.4-1C165.1,137.2,166.2,137,166.6,137z M172.7,131.9c2.3-0.4,5.6,0.6,7.1-1.3c0.3,0,0.3-0.8,1.3-1.5
		c0.6-0.5,1.3,1.4,1.9,2c0.3,0.1,0.4,0.3,0.4,0.5c0,0.2,0,0.3,0,0.5c0,0.1,0,0.3,0,0.5c0,0.4-0.5,0.4-0.9,0.6
		c-0.8,0.8-1.1,0.3-1.9,0.8l-0.3-0.2c-0.6,0-0.9,0.2-1.5,0.2c-0.8,0-1.7-0.2-2.4-0.2c-1.2,0-2.5,0.2-3.7,0.2c-0.8,0-2,0-2-1.1
		C170.8,132.3,172.1,131.9,172.7,131.9z M171.7,165.4c0.1,0.2,0.6-2.4,0.6-3.8l0.2-0.3v-4.1l0.1-0.1c0-0.1,0-0.3-0.1-0.4
		c0.1,0-0.4-2.3,0.8-2.3c0.4,0,0.7,0.1,1.1,0.1c1.8,0,4.6-0.8,5.2-0.7c0.6,0,1.6-1.3,1.6-1c0.5,0,2.8,1.3,2.8,1.8c0,0.1,0,0.3,0,0.3
		c0,0.3-0.1,2.3-0.1,3.7l-0.2,0.3v3.1c0,1.4-1.6,1.1-3,1.1c-0.5,0.4-1,0.5-1.6,0.5c-0.3,0-0.5,0-0.8,0c-1.9,0-3.6,0-3.6,1.7
		c0,0.1-0.7,1.1-0.7,1.2c-0.2,0.3-0.5,0.8-0.8,0.8c-1.1,0-1.6-0.7-1.6-1.7C171.7,165.6,171.7,165.4,171.7,165.4z M173.6,143.5
		c0.2,0,0.4,0,0.7,0c0.2,0,2.1-0.3,3.3-0.3c0.3,0,2-0.3,2.3-0.4c0.3-0.4,2-2,2.5-2c0.5,0,1.7,2.3,1.7,2.7c0.3,1-2.9,1.6-4.4,1.6
		c-0.3,0-1.8,0-2.1,0l-4.8,0.2c-0.2,0-0.3-0.1-0.3-0.6C172.4,144,172.7,143.5,173.6,143.5z M173.3,147.9h6.3c1,0,1.3-1.2,2.4-1.2
		c0.8,0,1.9,1.2,1.9,2c0,0.6-0.5,0.7-1,0.7c-0.2,0-0.4,0-0.6,0c0,0-0.1,0-0.2,0c-0.1,0-0.1,0-0.1-0.1c-1.6,0.7-2.9,0.4-4.6,0.6
		c-0.6,0-2.7,0-3.1,0.3c-0.4-0.1-1.8,0.3-1.8-0.8C172.4,148.7,172.7,147.9,173.3,147.9z M176.1,162.6c0.9,0,1.8-0.3,2.8-0.6
		c0.2-0.5,0.6-1.7,0.6-3c0.3-0.4-0.1-1.7,0.3-2.1c0-0.8-0.5-1.1-1.6-1.1c-1.5,0-3.1,0.1-3.1,1.6c0,2.5,0.2,3.2,0.2,4.7
		C175.3,162.4,175.6,162.6,176.1,162.6z M183.1,168.8c0.3-0.1,3.1-1.5,3.4-1.7c0.7-0.4,1.1-0.4,1.8-0.8c0.6-0.3,0.8-0.8,1.4-1.1
		c0.2,0,1-0.4,1.1-0.6c-0.4,0,2.3-1.3,2.3-2.1c0-0.3-0.4-0.6-0.6-0.6c-1.6,0-1.9,1.3-2.9,1.3c-0.5,0-1.1-0.4-1.4-0.8
		c0-1.9,0.3-4.6,0.3-6.1c0-0.8-0.2-1.4-0.2-2.1c0-0.3,0.2-0.6,0.2-1c0-0.5-0.2-0.8-0.2-1.1c0-0.3,0.2-0.3,0.2-0.6
		c0-0.9-1.6-1.3-1.6-2.4s0.3-2.3,0.3-3.2c0-0.8-0.1-3.1-0.4-3.7v-2.5c0-0.3,0.6-0.3,0.7-0.3c0.3,0,1.7,0.8,2.8,0.8
		c1.7,0,3.4-0.1,5.1-0.1c0.2,0,0.8,0,0.8,0.4c0.8-0.8,3.2-0.7,4.1-0.7c1.9-0.1,2.6,0,4-2.1c0-0.2,0-0.4-0.2-0.4
		c-1.2,0-1.7-0.1-2.4,0.3c-1.1,0-2.2,0-3.3,0s-3.1,0-3.6,0.5H191c-0.3,0.3-0.6,0.3-0.9,0.3c-0.3,0-1.3,0-1.3-0.6
		c0-1,3.4-0.8,4.7-0.8c0.7-0.4,0.6-1,0.6-1.8c0-0.3-0.1-0.6-0.7-0.7c-3.1,0-4.2,0.5-5.2,0.5c-1.2,0-2.4-0.7-2.4-1.9
		c0-0.1,0.1-0.2,0.2-0.2h3c0.2-0.1,0.5-0.2,0.8-0.2c0.4,0,0.7,0.1,1,0.1c0.3,0,1.7-0.2,2-0.2c1.6-0.2,1.1-2.9,1.6-3.8l0.1-0.2
		c-0.4-0.7-0.7-1.5-1-2.3c-0.1-0.3,0.4-0.6,0.6-0.8c1,0,1.5,0.6,2,0.6c0.6-0.1,1,0.6,1.6,0.6c0.9,0.5,2.5,0.2,2.5,1.7
		c0,1.3-1.1,2.3-1.1,3.6l0.1,0.3c1,0,2.4,0.1,3.8-0.3c0-0.1,1-1,1.4-1c0.8-0.6,1.3-1.5,2.4-1.5c0.6,0,1.2,0.7,1.5,1.2
		c0.6,0,0.4,1.4,0.8,1.6c0.1,1-2,1.2-2.8,1.2l-0.5-0.1l-0.1,0.3l-1.1,0.6c-0.2,0.1-0.2,0.4-0.2,0.4c0,0.6,1.7,0.9,1.7,2
		c0,0.3-0.1,0.7-0.1,1c0,0.5,2.9,1.1,2.6,3.1c0,0.1-0.7,1.7-0.7,1.8c0,0.5-0.2,1-0.2,1.9c-0.6,1.1-0.5,2.3-0.8,3.5
		c-0.3,0.8-0.9,1.4-0.9,2.3c0,0.6,0.1,0.6,0.1,1c0,0.4,0,0.9-0.3,1.4c0,1.6-0.1,3.1-0.1,4.7c0,0.1-0.2,0.7-0.2,0.8
		c0,0.7,0.2,1.4,0.2,2.1c0,1.1-0.5,2.6-1.4,4.3c-0.4,0.8,3.7,0.5,4.2,2.1c0,1.2,0,2.4-0.8,3c-0.2,0.1-1.3,0.6-1.4,0.7
		c-0.5,0-0.5,0.8-1.4,0.8c-0.2,0-2.2-1.2-2.2-1.2l-1.6-3.3c-0.6-0.9-2.4-1.7-2.4-2.9c0-0.4,0.2-0.5,0.5-0.5c0.1,0,0.2,0.1,0.3,0.1
		c0.3,0,0.6-0.1,0.6-0.8c0,0,0-0.6-0.1-0.6h-3.4c-0.4,0.4-2-0.1-2,0.8c0,0.6,0.3,1,0.3,1.6c0.1,0.4-0.1,0.2-0.4,0.8
		c-0.8,0-3.2,2-4.8,2.6c-1.1,0.5-2.2,0.8-3.4,1.6c-1.7,0.8-4.2,1.9-4.2,1.8c-0.5-0.2-1,0.8-1.4,0.8c-0.6,0.3-1.6,0.6-2.3,0.6
		c-0.2,0-0.3-0.3-0.3-0.5C178.7,170.1,181.1,170,183.1,168.8z M181.9,159.8c0.1,0,0.1-0.1,0.1-0.3c0-0.3-0.1-1-0.4-1
		c-0.5,0-0.7,0.3-0.7,0.6C181,159.3,181.5,159.8,181.9,159.8z M190.1,146.4c1.1-1,2.3-2.5,2.3-4.3c0.4-0.4-0.8-0.4-1.4-0.4
		c-1.8,0.3-1,0.4-1.6,2.1c0,0.8,0.2,0.9,0.2,2.1C189.6,146.1,189.9,146.4,190.1,146.4z M190.9,149.3c0.7,0,1.3,0,2.1-0.1h3.7
		c0.1,0,0.6,0.1,0.7,0.1c0.9,0,4.1,0.2,4.1-0.9c0-0.6-0.5-0.6-0.8-0.6c-3.8,0-4.7,0.2-6.5,0.3c-0.1,0-0.6-0.2-0.7-0.3l-3.2,0.4
		c0,0-0.5,0.3-0.5,0.6C189.6,149.2,190.3,149.3,190.9,149.3z M192.5,160.6c0.3,0,2.7-0.3,3-0.3c1.4,0,3.2,0,4.2-0.3
		c0.9-0.1,0.6-2.6,0.6-4.1l0.1-0.3v-4.8c0-0.5-2.3-0.5-2.4-0.5c-1,0-2.1,0.3-2.8,0.3c-0.6,0-1.1,0-1.7,0c-0.9,0-2.8,0-2.9,1.1
		c0,0.6-0.2,1.1,1.4,1.1c1.9,0,3.6-0.6,5.5-0.6c0.6,0,1.3,0,1.3,0.8c0,0.5-0.3,0.6-0.7,0.6c-0.1,0-0.3,0-0.5,0
		c-0.1,0-0.7,0.1-0.8,0.1c-1.2,0-1.8,0.4-2.8,0.4c-1.1,0.2-3,0-3,0.7v1.1c0,0.4,1.7,0.6,2.2,0.6c1.5-0.1,3.1-0.6,4.8-0.6
		c0.4,0,1.3-0.1,1.3,0.4c0.3,1.6-4,1.1-5.2,1.4c-0.1,0-0.4,0-0.6-0.1c-1.4,0.5-2.5,0.5-2.5,2C190.9,160.5,192.1,160.7,192.5,160.6z
		 M193.2,146.4c2.2,0,4.6-0.2,7.6-0.2c2.9,0,2-1.4,2.7-2.5c0-0.4,0.3-2.5-0.6-2.5c-0.6,0-0.6,0.5-0.6,0.8c0,0.6,0.3,1,0.3,1.6
		c0,1.8-2.2,1.5-3.4,1.5c-2.5,0-2.1-0.1-2.5-1v-1.7c0-0.6-0.8-0.8-1.1-0.8c0,0-0.7-0.1-0.8,0.3c0,0.8-0.9,1.6-1,2.1
		c-0.5,0.1-0.5,1.5-1.1,1.8v0.2C192.6,146.1,192.9,146.2,193.2,146.4z M196.4,132.5C196.4,132.6,196.4,132.6,196.4,132.5
		c0.1,0,0.1,0,0.1,0C196.5,132.5,196.5,132.5,196.4,132.5C196.4,132.5,196.4,132.5,196.4,132.5z M198.7,135.7c0,0.3,0,0.6,0.3,0.6
		c0.6,0,0.7-0.1,1.1-0.4c0.8-0.8,2.5-0.8,2.5-1.6c0,0-0.6-0.3-1-0.3c-1.6,0.1-3-0.5-3,1.3C198.7,135.4,198.7,135.6,198.7,135.7z
		 M198.8,141.9c0,0.2,0.4,0.7,0.4,0.7c0.4,0,1.3-0.6,1.3-1l-0.1-0.3c0,0-1.6-0.1-1.6,0.4C198.8,141.9,198.8,141.9,198.8,141.9z
		 M205.2,140c0-0.1-0.1-0.3-0.3-0.4v0.1C204.9,139.8,204.9,140,205.2,140z"/>
	<path class="st0" d="M174.5,212.8c0-0.2-0.1-1-0.1-1.1c0-0.9,0.3-4.5,0.3-4.8c0-0.1,0.1-0.4-0.1-0.8c0-1.6,0.1-2.4,0.1-3.5
		c0-0.4-0.1-1.2-0.1-1.8c0.1-0.6,0-1-0.7-1c-0.8,0-1.3,0.3-2.1,0.5c-0.8,0-1,0.2-1.6,0.4c-1.2,0-2.4,0.8-3.5,0.8
		c-0.8,0-0.8-1.1-1.1-1.7c-0.2-0.2-0.6-0.8-0.8-0.8c0-0.4,0.1-0.8,0.8-0.8c0.3,0,0.6,0.2,0.9,0.2c0-0.2,1-0.2,1.6-0.2
		c0.3,0-0.2-1.2,0.7-1.8c0.6-0.4,1.5-0.8,2-1.2c0.3-0.4,0.7-0.7,1.1-0.8c0.4-0.2,0.8-1.1,1.4-1.1c0.3-0.1,0.6-0.8,0.7-1
		c0.6-0.7,1.6-0.8,1.6-2c0-0.3-0.1-0.3-0.6-0.3c-0.6,0-1.1,0.4-1.8,0.4c-2.1-0.2-2.4,0.8-3.9,0.8c-0.8-0.2-0.8-1.3-1.1-1.8
		c-0.1-0.3-0.6-0.6-0.6-1c0-0.6,0.8-0.4,1.1-0.6c0.3-0.1,0-0.3,0.3-0.4c0.3,0.3,1.3-1.1,3.1-3l0.3-0.2c0.2-0.9,0.8-1.6,1.6-2.3
		c-0.4-0.1,0.8-0.6,0.8-0.9c-0.2-0.5,0.7-1,0.7-1.4c0.5-0.8,1.1-1.2,1.1-2.8c0-0.5-0.1-1.1,0.6-1.1c0,0,2,0.1,2.4,0.1
		c0.7,1.4,1.8,0.9,1.8,2.4c0,0.1,0,0.7-0.1,0.9c-0.4,0.5-1.3,1.1-1.1,1.3c0,0.4-1.4,0.8-2.4,1.8c-0.3,0.7-0.7,0.8-1.3,1.1
		c-0.5,0.6-0.8,1.3-1.4,1.7c-0.1,0.2-0.8,0.3-0.8,0.6v0l-0.7,0.7c-0.1,0-0.7-0.2-0.8-0.6l-0.1,0.1c0.1,0.1,0.4,0.6,0.4,0.7
		c0.1,0.5-0.4,0.7-0.4,1.3c0,0,0,0.3,0.1,0.3h2.4l0.3-0.1c2.4,0,2.3-0.4,3.1-1.4c0.1-0.1,0.7-0.7,0.8-0.8c0.7-1.3,0.1,0,1.4-1.9
		c0,0,0-0.1,0-0.2c0-0.3,0-0.7,0.4-0.7c-0.3,0,1.4,0.8,1.4,1.7l-0.1,0.1c0,0.2,0,0.3,0.1,0.5l0.2-0.3c0.3,0,1.1,1.1,1.2,1.3
		c0.2,0.1,0.3,0.4,0.3,0.4l-0.6,1.1c-0.2,0-0.7,0.6-0.9,1c-0.6,0.5-2.7,1.7-2.7,2.5c0,0.4,1.1,1.2,1.1,1.8v0c0.6,0.9,1.6,1.4,2,2
		c-0.1,0,1.1,1.8,1.9,1.8c0.1,0.5,0.3,1,0.3,1.4c0,0.5-0.3,1.4-0.8,1.1c0,0.1,0,0.3,0.2,0.5c-0.2,0-0.8,0.8-1.3,0.8s-1.2-0.5-1.4-1
		c0-0.8-0.9-1.5-1.1-1.8h-1.7c-0.6,0-0.7,1.5-0.7,2c0,0.1,0.1,1.4,0.1,1.5c0,4.1-0.3,4.3-0.3,8.3c0,0.1-0.3,0.7-0.3,0.8
		c-0.1,0.7,0.3,0.5,0.3,1.1c0,0.4,0,0.4-0.1,0.6l0.1,0.3c0,1-0.1,1.7-0.1,2.6c0,0.7-2.3,0.6-2.4,1c-0.6,0.1-0.4-0.5-0.7-0.6
		c-0.4,0.4-0.8-0.5-0.8-1.1C174.3,213.9,174.5,213.3,174.5,212.8z M165.9,199.9c0,0,0,0.1,0.1,0.1c0,0,0,0,0-0.1c0-0.1,0-0.2,0-0.2
		C165.9,199.7,165.9,199.8,165.9,199.9z M167.9,208.1c0.5-0.4,0.5-0.9,0.8-1.5c0.4-0.9,0.9-1.6,0.9-2.7c0,0.2,0.4-2.5,1-2.5
		c0.4,0,0.4,0.5,0.4,0.8c0,0.1,0,0.2,0,0.2c0.8,0.8,1,2.1,1,3.1c0.4,1,0.4,0.9,0.4,1.5c0,0.4,0,1.1-0.1,1.4c0,0.1-0.4,0.7-0.4,0.8
		c0,0.7-0.4,0.7-1,1.7l-0.3-0.2c0,0.1,0,0.2,0,0.2c0,0.5-2.1,2.3-2.5,2.3c-0.2-0.3-0.7-0.4-0.9-0.7c0.1-0.1-0.8-1.3-0.8-2.5
		C166.4,209.7,167.6,208.5,167.9,208.1z M171.9,187c0,0.1,0,0.1,0.1,0.1c0,0,0.1,0,0.1-0.1s0-0.1-0.1-0.1
		C171.9,186.9,171.9,186.9,171.9,187z M174.7,197.1c1.1,0,2.4-0.5,3.5-0.6c-0.1,0,2.3,0.1,2.3-0.6c0-1.6-0.2-2.5-1.4-3.7
		c-0.4,0-1.6,1.1-2,1.3l-0.4,0.1c-0.4,1.5-2.5,1.5-2.5,2.9C174.3,196.6,174.5,196.9,174.7,197.1z M175,211.6c0,0,0,0.1,0.1,0.1
		c0,0,0.1,0,0.1-0.1c0-0.1,0-0.2-0.1-0.2C175,211.5,175,211.5,175,211.6z M175.3,201v-0.3l-0.1,0.1L175.3,201z M179.2,191.1
		c-0.2-0.2-0.3-0.1-0.3-0.1C179.1,191.1,178.9,191.1,179.2,191.1z M180.2,192.5c0,0,0,0,0-0.1l-0.3-0.3c-0.1,0-0.1,0-0.1,0
		L180.2,192.5z M180.2,192.7c0,0.1,0,0.1,0.1,0.1c0,0,0,0,0-0.1s0-0.1,0-0.1C180.2,192.5,180.2,192.6,180.2,192.7z M180.3,192.8
		c0,0,0,0.1,0.1,0.1c0,0,0.1,0,0.1-0.1c0-0.1,0-0.2-0.1-0.2C180.4,192.7,180.3,192.8,180.3,192.8z M180.5,192.9c0,0.1,0,0.1,0.1,0.1
		c0,0,0,0,0-0.1c0-0.1,0-0.1,0-0.1C180.5,192.8,180.5,192.8,180.5,192.9z M185,210.3L185,210.3c-0.6-0.8-2.4-0.9-2.4-2.1
		c0-0.2,0.2-0.3,0.2-0.6c0-0.2-0.2-0.3-0.2-0.6l0.2-0.3l-0.5-0.5c-0.4-1.7-1.6-2.4-1.6-3.3c0-0.3,0-0.6,0.4-0.6
		c0.3,0,0.7,0.2,0.8,0.6l0.6,0.6c0.2,1.1,0.8,0.8,1.1,1c0.5,0.1,1.2,0.9,1.6,1.3c0,0,1.1,0.7,1.1,1.5c0,0-0.1,0.5-0.2,0.8l0.2,0.4
		c0,0.3-0.8,1-1.1,1.6l1.7,0.3c0.1,0.3,0.1,0.3,0.4,0.3c0.8-0.2,2.4-0.3,3.9-0.3c0.2-0.1,0.4,0.1,0.6,0.1c1.1,0,1-1.9,1.5-2
		c0-0.3-0.1-0.4-0.1-0.7c0-0.5,0.1-0.8,0.1-1.1c0-0.3-0.1-0.5-0.1-0.8s0.1-0.5,0.1-0.7c0-0.3-0.1-1.4-0.4-1.5c-0.5,0-2,0-2.4,0
		c-0.4,0-0.7-0.3-0.9-0.3c-0.5,0-0.8,0.4-1,0.6c-0.7,0.2-1.2,0.1-1.8,0.1c-0.3-0.1-1-1.4-1-1.5c0-0.5,0.2-0.5,0.3-0.8
		c1.4,0,1.7,0.3,2.8,0.3c0,0,0.3-0.4,0.3-0.6c0.1-0.6-0.8-1-0.8-2.3c-0.4-1.2-0.4-2.3-0.6-3.5c-0.4-0.5-0.4-1.3-0.8-1.7
		c-0.6-0.7-1.4-1.3-1.4-2.3c0-0.2,0.2-0.6,0.2-0.6c0.5-0.3,0.4-1,0.6-1.1c0.9-0.9,0.8-2,1.8-2.4c-0.4-0.4,0.6-0.9,0.6-2.1
		c0.2-0.6,0.5-3.1,1-3.1c0.1,0,0.7,0.8,0.7,0.9c1.1,0,2,1.6,2,1.7c0,1.3-0.9,1.8-1.5,2.6c-0.5,0.7-1.3,3.2-2.4,3.2c0,0-0.1,0-0.1,0
		c0,0.4-0.2,2.2-0.3,2.3c1.6,0,1.2,0.9,1.7,2.1c0.4,0,0.7,1.3,1.1,1.6l0.8,1.8c0,0.2,0,0.5,0,0.6c0,0.2,0.4,0.8,0.4,0.8
		c0,0.2,0,1,0,1.1l0.2,0.2c1,0,2-0.2,3-0.6c0.1-1.5-0.9-1.4-0.9-1.7c0-0.1,0-0.2,0-0.4c0-0.8-0.8-2.9-1.7-4.2
		c-0.3-0.6-1-1.1-1.2-1.7c0-0.3,0-0.7-0.2-0.8c0-0.7,0.7-0.8,1.1-1.4c0-0.4,0.8-2.1,1.3-2.1c0,0,0-0.1,0-0.2c0-1.2,0.9-2.5,1.3-3.4
		c0-0.7,0.4-1,0.4-1.5c0-0.5-0.1-0.8-0.1-1c0-0.1,0-0.3,0.1-0.3l0.3,0.3c0.1,0,0.1-0.1,0.3-0.1l0.1,0.4c0,0.5,2.1,1,2.1,2
		c0,1-0.7,0.8-0.8,1.5c0,0.8-0.3,1-0.8,1.6c0.3,1.8-2.5,2.6-2.5,4.9c0,0.7,2.1,2.6,3,3.7c0.6,0.8,1.6,1.4,1.6,2.4
		c0,0.3-0.3,0.8-0.3,1.1c0,0.6,0.6,0.9,1.1,0.9c0,0.4,0.9-0.6,1.4-0.6c0.6-0.3,2.7-0.1,2.7-1.1c-1.7-1.9-0.8-2-2.4-3.7
		c-0.4-0.6,0-0.8-1.7-2c-0.4-1-2.3-1.2-2.3-1.8c0-0.8,0.9-1.3,1.4-2l0.3-0.1c0.1-0.9,1-1.4,1.4-2.1c0.3-0.7,0.9-1.4,1.3-2
		c0.2-0.9,0.8-1.2,1-1.7c0-0.8,0.3-2,1.4-2c0.4,0.6,0.7,0.3,1.2,0.7c0.7,0.6,1.2,1.3,1.2,2.2c0,1.7-1.7,2-2,2.3
		c-0.6,0.6-0.6,1.1-1.1,1.6c-0.3,0.9-1.8,1.5-1.8,2.4c0,1,1.6,1.5,2.7,2.3c0.3,0.1,1.4,1.3,1.6,1.6c0,1,0.8,1.5,0.8,2.2
		c0,0.8-0.4,1.5-1,2.3c0.1,0.1,0.2,0.5,0.3,0.7l1.6,1.6c0,0.4,0.4,0.7,0.4,0.9c0,0.5-0.4,1-0.8,1c-0.7,0-2-0.6-3.1-0.6
		c-2.1,0-3.7,0.3-5.1,0.3c-0.7,0-0.6,1.6-0.7,2c0,0,0,0.2,0.3,0.8c-0.3,0.8-0.3,0.8-0.3,1.3c0,0.8,0.1,2.8,1.4,2.8
		c0.6,0,1-0.5,1.4-0.5c1.8,0,1.7-0.3,2.8-0.7c0.2-0.2,0.9-1.3,1.8-1.3c0.6,0.2,0.8,0,0.8,0.5c0.2,0.3,1.6,0.5,1.6,1
		c0,0.1,0,0.1,0,0.2l0.3-0.1c0.2,0.1,1.5,1.2,1.4,2.1l-0.8,0.8c-0.2,0-0.2,0-0.2,0c-0.3,0-0.8-0.5-0.8-0.4l-0.3,0.1
		c-0.3,0-3.2,0.3-3.2,0.3c-0.7,0-1.3-0.1-2-0.1c-0.1,0-0.3,0.1-0.4,0.1c-0.3,0-0.4-0.1-0.7-0.1l-0.1,0.1H199l-0.1-0.1l-0.6,0.3
		c-1,0-2.3,0-2.5,0.1c-0.2,0-0.5-0.2-0.7-0.1c-0.1,0-1.1,0.4-1.3,0.4c-0.9,0-2.5,0-2.4,0.2c-0.1,0.4-0.4-0.5-0.8-0.5l-0.4,0.5
		c-1.6,0-3,0.7-3.7,0.7c-1,0-2.5-1.4-2.5-2.5C183.9,210.5,184.7,210.3,185,210.3z M180.8,187.5C180.8,187.5,180.8,187.6,180.8,187.5
		c0.1,0.1,0.1,0,0.1,0c0-0.1,0-0.2,0-0.2C180.8,187.3,180.8,187.4,180.8,187.5z M180.9,196c0,0,0,0.1,0.1,0.1c0,0,0.1,0,0.1-0.1
		c0-0.1,0-0.2-0.1-0.2C180.9,195.8,180.9,195.9,180.9,196z M181.2,185.8c0,0,0,0.1,0.1,0.1c0,0,0.1,0,0.1-0.1c0-0.1,0-0.2-0.1-0.2
		C181.2,185.6,181.2,185.7,181.2,185.8z M184,178.2c0.5,0,0.6,0.2,0.8,0.2c0.2,0,0.5,0,0.8-0.2l0.6,0.3c1.7,0,3.7-0.3,5.8-0.3
		c0.2,0,2.9,0,3.8-0.7h1.8c0.3-0.2,0.6-0.3,0.8-0.3c1.1,0,2.1,0,3.2-0.8c0.6-0.4,1.6-1.4,2.3-1.4c0.4,0,2.2,2.2,2.9,2.2
		c0,0,0,0,0.1,0l0.7,0.7c0.5,0.1-0.8,0.8-1.1,0.8c-0.3,0-0.4-0.2-0.7-0.2c-0.9,0-1.6,0.3-2.5,0.3c-0.1,0-0.3,0-0.5,0
		c-0.1,0.3-0.8,0.5-1.3,0.5c-1.9,0.8-3,0.8-4.5,0.9c-0.6-0.1-0.8,0.3-1.7,0.3c-0.8,0-3.6,0.2-4.1,0.5c-0.3,0-0.3-0.2-0.4-0.2
		c-0.5,0-1.4,0.6-1.9,0.6c-0.6,0.2-1.4,0.2-1.7,0.5c-0.8,0-3.8-3.1-3.8-3C183.6,178.5,183.7,178.2,184,178.2z M189.5,180.8
		L189.5,180.8L189.5,180.8L189.5,180.8z M190.2,201.3c0,0,0,0.1,0.1,0.1c0,0,0,0,0-0.1c0-0.1,0-0.2,0-0.2
		C190.2,201.1,190.2,201.2,190.2,201.3z M194.9,199.4h0.1v-0.3h-0.1V199.4z M195.5,210.3h0.1v-0.1L195.5,210.3L195.5,210.3z
		 M195.6,200.5l0.1,0.6l-0.1-0.8V200.5z M197.4,210h0.1v-0.2h-0.1V210z M200,210.7C200,210.7,200,210.8,200,210.7
		c0.2,0.1,0.2,0,0.2,0C200.2,210.7,200.2,210.6,200,210.7C200,210.6,200,210.7,200,210.7z M203.1,185.6v-0.1h-0.1L203.1,185.6z
		 M207.6,211.4h0.3v-0.2h-0.3V211.4z"/>
	<path class="st0" d="M165.9,248.7c2,0,3.7,0.2,5.7,0.2c1,0,1.8,0,3-0.2c0.9,0,0.7-2.3,0.7-3.2c0,0.1-0.1-4.7-0.1-7.3
		c0-2.3,0-5.8-1.8-6.5c-0.3-0.3-0.7-0.2-0.7-0.8c0-0.4,1.4-1.1,2-1.1c1.2,0.2,2.3,0.8,3.4,1.3c1.5,0,2.6-0.1,4-0.3l0.3-0.3v-4.4
		c0-1.1-1-2.3-1.6-3.1c-0.2-0.5,1.2-1.6,1.9-1.6c0,0,3.8,1.8,3.8,2.7c0,0.8-0.8,1.7-1.1,2.4c-0.1,0.8-0.4,1.3-0.4,1.8
		c0,3.1,0.9,2.5,3.7,2.5c0.3-0.4,0.4-1.2,0.4-1.8c0-1-0.3-1.9-0.3-2.8c-0.1-1.3,0-2.4-0.7-3.5c0-0.5-1.4-0.9-1-1.1
		c-0.4-0.6,1.7-1,3-1c1.5,0.6,2.6,1.2,3.5,2.1c0,0.3,0,0.6-0.1,0.7c-0.8,1.2-1.6,1.6-1.6,3.9c0.3,0-0.5,2.3,0.5,3
		c0.6,0.1,1.6,0.3,2.3,0.3c1.4,0.2,2.1-2.5,3.2-2.5c0.4,0,3.9,1.9,3.9,2.4c0,1.1-2.5,2.6-2,2.8v6.5c0,1.5,0.3,5.7,0.3,5.6
		c0,2,0.2,2,1.4,2c0.4,0,1.1,0,1.6-0.3l1.8-1.7h0.2c0.6,0,3,3.1,3.5,3.5c0.3,0.3,0.3,0.3,0.3,0.8c0,0.4-0.8,1.2-1.2,1.2
		c-1,0-2-0.3-2.8-0.3c-1.5,0-8.4-0.1-9.9-0.1c-8.9,0-8.9,0-19.9,0.7c-2,0.1-3.8,0.8-5.8,0.8c-1.1,0-2.2-1.5-3.4-2.7
		C165.4,249.2,165.9,248.7,165.9,248.7z M169.8,262.4c2.7-1.9,6.5-4.5,9.2-7.9c0.5-0.7,2-3.4,2.7-3.4c0.3,0,0.4,0,0.6,0.1
		c0.7,1.2,2.4,3.3,2.4,3.9s0,0.6-0.3,0.8c-3.1,1.8-5.5,3.9-8.6,5.4c-1.5,0.9-7.8,3.6-8.9,3.6c-0.3,0-0.4,0-0.4-0.3
		C166.4,264.1,168.7,263.1,169.8,262.4z M177.6,234.8c0.6-0.3-0.5,4.3,1.4,4.3c1.5,0,1.8,0.1,3-0.1c0.2,0,0.3-1.4,0.3-1.6
		c0,0.2-0.1-2.5-0.1-2.9c0-0.1,0-0.3,0-0.5c0-0.5,0-1.1-0.5-1.4c-1.3,0-1.8,0-2.5,0c-0.4,0-0.9,0-1.3,0.2c-0.4,0-0.3,0.9-0.3,1.2
		C177.6,234.3,177.6,234.8,177.6,234.8z M178.2,246.6c0,0.3-0.1,0.6-0.1,0.9c0,0.5,0.1,1,0.7,1.2c3,0,3.8,0,3.8-1.1
		c0-1.8,0-5.1-0.3-6.3l-0.1-0.1c0,0-1-0.1-1.5-0.1c-1.7,0.1-1.7-0.3-2.5,1v2.3c-0.1,0.1-0.1,0.6-0.1,0.7
		C178.1,245.4,178.2,246.1,178.2,246.6z M185.7,239h2.5c0.3,0,0.8-0.3,0.8-0.6c0-1.7-0.1-1.7-0.1-2.3c0-0.8,0.3-3.6-0.8-3.6h-2.5
		c-1.3,0-1,1.4-1,2.8C184.6,236.4,184.3,239,185.7,239z M186.8,248.4c1,0,2.8,0.4,2.8-1.2c0-0.6-0.1-1.2-0.1-1.7
		c0-1.1,0-4.7-0.8-4.7h-2.8c-1.2,0-1.1,2.1-1.1,4.5c0,0.1,0.3,1.6,0.3,2.3C185.3,248.3,186.2,248.4,186.8,248.4z M189.9,251.8
		c0-0.1,0.2-0.4,0.5-0.4c3.1,0.9,5.6,2.5,8.3,4c1.1,0.7,2.5,1.3,2.5,2.7c0,1.6-2.3,4.5-3.4,4.5c-1.2,0-2.5-1.7-2.5-2.9
		c-0.5-2.2-1.9-4.1-3.4-5.8c-0.6-0.7-1.4-1.1-2-1.9C189.9,252.1,189.9,252,189.9,251.8z M193.3,238.9c0.5,0,1.9,0.1,2.1-1
		c0.1-0.8,0.1-1.4,0.1-2.1c0-0.5-0.1-3.1-0.1-3.1l-0.1-0.3c0,0-0.7-0.2-1-0.2c-2.9,0-2.7,0.9-2.7,2.3c0,0.2,0.3,2.4,0.3,3.4
		C192.4,238.4,192.6,238.9,193.3,238.9z M193.8,248c1.2,0,2,0.2,2-2c0-6.1-0.3-5.4-2.3-5.4c-0.5,0-1.3,0-1.3,0.6l-0.3,5.8
		c0,0.3,0.5,0.8,0.6,0.8C192.6,247.8,193.6,248,193.8,248z"/>
	<path class="st0" d="M201.4,283c2.5-1.2,4-2.8,4-4.3c0-0.3-0.1-0.7-0.3-0.9s-0.2-0.2-1.4-0.5c-1.6-0.4-2.5-1.7-2.5-3.3
		c0-2.1,1.7-3.7,3.9-3.7c2.5,0,4.2,1.9,4.2,4.8c0,4-2.7,7.6-7.1,9.2L201.4,283z"/>
	<path class="st0" d="M166.6,357c1.6-1.2,2.4-1.5,3.6-2.3c0.1-0.1,1.1-0.7,1.2-0.8c0.2-0.6,0.8-0.7,1.3-0.9c0.3,0,2.2-2.7,2.3-3.3
		c0.3-0.6,0.8-1,1.1-1.6c0.2-0.4,0.3-0.8,0.6-0.9l-0.1-0.3c0-0.4,0.7-0.2,0.7-2.3c0.2-0.3,1.2-2.4,1.2-4.9c0-0.1-0.1-0.3-0.2-0.4
		c-0.1,0-0.2,0.1-0.3,0.1c-0.5,0-0.6-0.2-1.3-0.4c-0.6,0.1-3.5,0.4-4,0.6c-1.2,0.2-2.2,0.3-3.9,0.3c-0.3,0-0.7,0.3-1.1,0.3
		c-0.6,0-1.1-1.6-1.1-2c0.1,0,0.2,0.1,0.4,0.1c0.4,0,0.8-0.7,1.4-0.4c0-0.6,0.5-0.4,0.7-0.7c0-1,0.7-1,1-1.6
		c1.2-2.3,2.1-4.6,3.1-6.5c0.1-0.1,0.4-1.1,0.6-1.4c0.3-0.6,0.6-0.8,0.8-1.5c0.1-0.6,0.1-1,0.4-1.6c0.2-0.1,0.6-2,0.8-2.1
		c0.6-1.6,0.5-2.3,1.1-3.4c-0.2-0.2-0.2-0.2-0.2-0.7c0.2,0,0.3-1.3,0.3-1.7l-0.3-0.6c0-0.3-0.8-0.1-0.8-0.7h1.7l0.2,0.1
		c0.2,0,0.5,0,0.7,0c0.4,0,1.4,0.7,1.4,1.3c0.6,0,1.3,0,1.9,0.3c0.2,0.6,0.5,0.3,0.6,0.6c0,0.1-0.4,0.6-0.4,0.7
		c-1.3,2-2.2,3.1-3,5.1c-0.6,0.2-0.6,1.8-1,1.9c0,0.5,0.4,0.8,0.8,1.1c0.1,0,0.8-0.3,0.9-0.3c0.3,0,0.5,0,0.8-0.2
		c0,0,0.1-0.1,0.7,0.2l0.5-0.2c0.2-0.1,0.7,0.2,1.3,0.2c0.5,0,0.9-0.5,1.2-0.5c0.2,0,0.8-0.1,0.8-0.3l1.6-1.6
		c0.7-0.3,0.1-0.7,0.9-0.7c0-0.2,0.7,0.5,1,0.8c0.7,0,2.1,0.8,2.1,1.6c0,0.9-0.8,1.3-2.1,1.2c0,0-3.8,0.5-5.8,0.5
		c-0.4,0.1-0.9,0.3-0.9,0.8c0,0.4,0.4,0.4,0.8,0.6c0,0.4,1.8,0.4,1.8,1.4c-0.3,2-1.4,4-1.4,5.9c0,0.3,0.2,1.2,1.1,1.1l0.5-0.4
		c0.1,0,0.7,0.1,0.8,0.1c0.7,0,1.5-0.3,2-1c0.6-0.9,0.9-1,1.7-1.3c0.7,0.3,1.7,1,1.7,1.8c0,1.6-1.8,1.9-2.8,1.9c-0.6,0-1.2,0-1.6,0
		c-0.8,0-1.4,0.3-2.1,0.4c-0.8,0.1-1.1,0-1.7,0.4c-0.2,0.1-0.8,1.6-0.8,1.7c-0.3,1.1-0.8,2.2-0.8,3c0.1,0.4,1.2,0.7,1.6,0.8
		c0,0,1.7,1.5,1.7,2c0.2,0.3,1.5,0.5,1.5,0.8c0,0,0,0.1,0,0.1c1.3,0.2,0.8,0.3,1.1,1c0.6,0.2,0.6,0.8,0.6,2.7c0,0.9,0.8,1.2,0.8,1.4
		c0,0.3-0.3,0.9-0.6,0.9v-0.1l-0.4,0.4c0,0-0.8-0.4-1.1-0.6c-0.6-0.3-0.8-1.4-0.8-2c0-0.8-0.5-0.8-0.6-1.4c-0.2-0.6-0.5-1.9-1.6-3
		c-1.2-1.1-1-1.7-1.9-1.7c-0.9,0-1.1,0.8-1.4,1.6c-0.9,1.6-1.9,3.4-3.1,4.8c-0.3,0.3-1.5,1.6-1.7,1.6c-1.3,1-2.3,1.3-3.5,2.1
		c-0.5,0-1,1.1-1.1,0.8c-1.4,0-1.7,0.8-2.4,1c-0.7,0.3-2.1,0.8-2.8,0.8l-0.3-0.3C164.9,356.9,166.5,357,166.6,357z M170.5,338.2
		c0.3,0,0.7-0.1,0.9-0.3h2.5c0,0.1,0.8,0.2,1,0.3l0.4-0.4c1,0,1,0,1.4,0.1c-0.1-0.1,1-0.3,1.7-0.3l0.5,0.3c0.1,0,0.7-1.8,0.8-2.1
		c0-0.1,0.1-0.7,0.1-0.8c0-0.7,0.7-7.2-1.1-7.2c-3.1,0-3.2,2.3-4.8,4.4c-0.3,0.4-1,1-1.1,1.6c-1.6,1.6-2.3,2.4-3.5,3.7
		C169.3,337.9,170,338.2,170.5,338.2z M177.5,338.4C177.5,338.4,177.6,338.5,177.5,338.4c0.2,0.1,0.2,0,0.2,0c0-0.1,0-0.2-0.1-0.2
		C177.6,338.2,177.5,338.3,177.5,338.4z M182.3,332.4c0.5-0.3,0.8-0.6,1.1-1c0-0.1-0.3-0.1-0.3-0.1
		C182.7,331.3,182.3,331.9,182.3,332.4z M192.2,354.6c0-0.2,0-0.8-0.3-1.1l0.2-0.3v-1.6l-0.3-0.1c-0.4-0.1,0.4-0.2,0.4-0.6
		c0-0.1,0-0.3-0.1-0.5l0.1-0.4c0.2-0.2-0.3-0.5-0.3-1c0-0.5,0.5-0.8,0.5-1c0-0.4-0.6-0.6-0.5-1.1l0.3,0.2c0-0.5-0.3-0.4-0.3-0.8
		c0-0.2,0.2-0.3,0.2-0.5c-0.3-1-0.1-2.4-0.3-2.8c0-0.1,0-0.1,0-0.1c0-0.2,0.1-1.7,0.1-1.9c0,0,0,0,0-0.1c0-0.1-0.3-1.7-0.3-1.8
		c0-0.5,0-1.6-0.1-1.6c0-1.3,0.4-3.6,0.4-4.5l-0.3-0.4c0-0.6,0.2-1,0.2-1.5c0-0.4-0.2-0.9-0.2-1.4c0-0.3,0.3-0.1,0.3-0.3
		c0-0.3-0.3-0.4-0.3-0.8c0-0.3,0-0.4,0.2-0.6c-0.2-0.7-0.6-1.4-0.6-2.1c0-0.8,0.1-1.3,0.1-2c0-0.6-0.1-1-0.1-1.4
		c1.2,0,1.8,0.6,3.1,1c0.3-0.1,0.7,0.2,1,0.4c1.4,0,0.6,1.5,1.7,1.5c1.3,0,1.8,0.1,2.8,0.1c-0.1-0.3,3.4,0.2,3.2-1.2
		c0.8-0.2,1-1.2,2-1.2c0.4,0.3,0.7,0.3,1.4,0.3c0.4,0,2.6,1.3,2.6,1.7c0,0.7-0.6,1.1-0.9,1.5c0,0.3-0.2,1.7-0.2,2
		c0,0.8-0.4,1.4-0.4,3.7c-0.4,2-0.2,4.1-0.5,6.1c0,0.1,0,0.1,0,0.1c0,0.1,0.3,2,0.3,2.1c0,0.4,0,2.4,0,2.9l0.2,0.3v1.5
		c-0.2,0,0,0.9-1.1,2c-0.6,0.8-0.6,1-1.7,1c-1.1,0-1.7,0-2.4-1c-0.5-0.7-0.6-1.4-1.6-1.4c-0.4,0-0.8,0.2-1.3,0.2l-0.3-0.2
		c-1.1,0-1.6,0.2-2.3,0.3c-1.5,0-1.4,1.1-1.4,1.9c0,0.6,0.1,1.5,0.6,2.2c0.1,0.3-0.1,1.1-0.1,2l0.1,0.3c0,0.6-0.6,1.3-0.6,1.5
		c0,0.4,0,0.3,0.1,0.6c0,0.2-0.1,0.8-0.1,0.8c0,0.1,0,0.2,0,0.3c0,0-0.6,0.8-0.8,0.9c-0.9,0-1.1-0.2-2-0.4c-0.1,0.1-0.8-1.1-0.9-1.1
		L192.2,354.6z M194.3,326.2c0.3,0,0.6-0.5,0.6-0.8l-0.1-0.1c-0.7,0-1-0.1-1,0.3C193.8,325.9,193.9,326.2,194.3,326.2z M199.5,344.7
		c0.6,0,0.8-0.4,1.3-0.6c0.3-0.1,1-0.1,1.1-0.4c0.1-0.3,0.4-0.8,0.4-0.8v-4.1l-0.1-0.4c0-0.1,0.1-1.1,0.1-1.3c0-0.3-0.1-0.9-0.1-1.4
		c0-1-0.1-1.8-0.1-2.7c0-0.8,0.1-1.9,0.1-2.8c0-0.6-0.3-1.1-0.3-1.7c0-0.3,0-1.4,0-1.7l-0.4-0.3c-3.8,0-5.9-0.2-5.9,1.8
		c0,0.2,0,0.5,0,0.8c0,0.3-0.1,0.9-0.1,1.6c0,1.2,0,3.5-0.3,3.8v7c0,0.2,0.1,0.6,0.1,0.8c0,0.4-0.1,0.7-0.1,1.1
		c0,0.3,0.1,0.9,0.4,1.1h1.6c0.3-0.3,0.7-0.3,1-0.3c0,0,0.8,0.1,1,0.1c0.1,0,0.4-0.1,0.4-0.3l0.1,0.2
		C199.6,344.5,199.5,344.6,199.5,344.7z M204.5,327c0,0,0-0.2,0-0.3c0-0.2,0-0.5-0.3-0.5c-0.1,0.2-0.2,0.2-0.2,0.5
		C204.3,326.8,204.3,327,204.5,327z"/>
	<path class="st0" d="M173.8,399.5c-0.1,0.1-0.8,0.6-1,0.7c-0.7,0.6-2,2.8-2.8,2.8c-1.3-1-3.3-2.4-3.3-3.1c0-0.5,1.9-1.5,2-1.5
		c1.3,0,2.9-1.9,3.6-1.9c0.1-0.7,1.6-0.4,2-1.1c0-0.4,0-2.8,0-3.2c0-0.1,0.1-1,0.1-1.1c-0.1-0.3-0.3-0.6-0.6-0.6c-1.8-0.1-2,0-3,0.1
		c-0.8,0.2-1.9,0.6-2.5,0.6c-0.8,0-0.9-0.7-0.9-1.5c0-1.1-0.2-2.5,0.8-2.5c0.3,0,0.6,0,0.8,0.1h4.6c0,0,0.7-0.1,0.8-0.1
		c1.4-0.3,1.3-3,2.8-3c0.2,0,1,1,1.6,1.8c-0.1,0.8-0.5,1.6-0.7,2.3c-0.2,1.2-0.4,2.3-0.4,3.4c0,0.3,0.1,1.7,0.4,2.4
		c0.1,0.3,1,2,1.1,2.3c0.7,0.6,0.8,1.5,1.7,2.1c1.1,0.5,2,1.3,3.1,1.3c0-0.3,0.6,0.4,3.7,0.4c1.1,0,2.4,0.2,2.7,0.2
		c1.1,0.1,2.3,0.1,3.2,0.1c2,0,3.7-0.3,5.6-0.3c0.8,0,1.7,0.2,2.7,0.2c1.3,0,2.6-0.2,4-0.2c0.8,0,1.4,0,1.4,0.5
		c-1.2,1-2.4,2-3.4,3.1c-0.2,1.2-2.2,1.3-3.6,1.3c-0.9,0-1.8,0-2.5,0c-1.1,0-2.3,0.3-3.4,0.3c-0.6,0-3.4,0-4.1,0h-0.6
		c-0.5,0.2-2.5,0.2-3,0.2c-0.4,0-1.2-0.3-1.5-0.5c-2.8-1.1-5.5-2.2-7.4-4.3c-1-1-1.3-2.4-2.4-2.4
		C174.7,398.1,174.4,398.9,173.8,399.5z M169,374.3c1-0.1,2.3,0.8,3.3,1.2c0.6,0.2,1,0.2,1.4,0.8c0.1,0.1,1.6,0.7,1.7,0.8
		c0.3,0,0.3,0.6,0.7,0.6c0.3,0,2.7,1.5,2.7,2.6c0,0.8-1.1,2-1.8,2.3c-0.6,0.2-0.8,0-1.6,0.6c-2.6,0.4-2.5-3.7-3.4-3.8
		c0.1-1.4-0.8-2.2-1.6-3c-0.6-0.7-0.9-1.2-1.6-1.8L169,374.3z M173.4,369.4C173.4,369.4,173.4,369.4,173.4,369.4
		c0-0.4-0.6-1.3-0.7-1.7c-0.9-0.6-1.5-1.7-1.8-2.1c-0.2-0.5,0.6-0.5,1-0.5c0.2,0,0.5,0.1,0.7,0.2c1.3-0.1,2.4,0.9,3.5,1.5
		c-0.2,0,1.2,0.5,2.1,1.9c0.1,0.4,1.3,1.4,1.3,2.3c0,0.4-0.7,1.2-1.7,2.2c-0.4,0-1.6,1.4-1.7,1.1c-0.4,0-1.3-0.1-1.4-0.6
		C174.4,372.4,173.8,370.7,173.4,369.4z M172,389c0,0,0,0,0.1,0s0.1-0.1,0.1-0.3C172.2,388.7,172,388.8,172,389z M195.9,395.2h-2.8
		c-0.4,0-0.9,0.2-1.3,0.3c-1.9,0-2.8,0.3-4.5,0.3c-0.2,0.1-1,2-1.4,2.3c-1.8,0-2-0.6-2-1.8c0-0.8,0-2.5,0.1-2.7
		c-0.3-1.1-0.3-2.1-0.3-3.4c0-1.9,0.2-2,0.2-2.8c0-0.1-0.3-1.7-0.3-1.8c0-2.6,0-8.6-0.5-8.6c0-0.2,0-1.2,2.3-1.2
		c0.2-0.3,0.8,0.6,1.3,0.6s2-1,2.1-1.4h-0.4c0-0.2,0-0.6,0.1-0.6l0.3,0.1c0.4,0.1,0.6-0.3,0.6-0.7c0-0.3-0.3-0.3-0.4-0.3
		c-0.3,0-0.5,0.1-0.6,0.1c-0.2,0-0.2,0-0.2,0c-0.1,0-1.5-0.1-1.7-0.1c-1.5-0.1-2.8,0.3-4.2,0.3c-0.3,0-0.7,0-1-0.2
		c-0.1-0.1-0.6-2.2-0.6-2.3c0-0.3,0.3-0.8,0.6-0.8h4.4c0.2,0,0.2-0.3,0.3-0.6c-0.6-2.8-1.7-5.2-3.8-7.1c0-0.5,0-0.5,0.4-0.8
		c1.4,0.2,2.5,0.5,3.9,1.1c0.1,0.2,1.2,0.6,1.4,0.8c0.3,0.3,1.4,1.4,1.7,1.7c0.3,0.7,1.7,1.9,1.7,2.9c0,0.3,0,1.4,0,1.7l0.1,0.2h1.1
		c0,0,1-1,1.5-1.4c1.1-1.3,1.6-2.8,2.4-4.2v-2l0.3-0.3c0.3,0,0.9,0,1.5,0c0.7,0,1.4,0,1.8,0.6c0.8,0.8,2.2,2.5,2,2.5
		c0.1,0.4-0.4,0.8-0.4,0.8c-0.3-0.2-0.8,1.1-1.3,1.1c-1.2,0.4-1.6,0.9-2.7,1.2c0.1,0.3-0.7,0.5-1.3,1.3c0,0.7,1.6,0.6,3.4,0.6
		c1.4-0.3,2.5-2.2,3.4-2.2c0.4,0,1,0.2,1.3,0.5l2.6,2.6c0.2,0.2,0.2,0.3,0.2,0.6c0,0.5-0.6,0.5-1,0.5c-0.7,0-1.1,0-1.8-0.2h-5.5
		c-0.1,0-1,0.2-1.1,0.2c-1,0-4.5-0.1-4.5,0.8l0.1,0.3c0.2,1-1.2,1.6-1.7,2.1c-0.4,0.1-1.6,1.9-2,1.9c0.3,0.1,0.6,0.3,0.7,0.4
		c1.4,0,5.5-0.3,6.5-0.3c0,0.4,2.5-2.5,3.5-2.5c1.2,0,2.6,1.8,2.6,2.1c0,0.5,0,1.3-0.2,1.6c-0.5,0.5-0.9,1.4-1,1.4
		c0,0.6-0.1,3.6-0.1,4.3c0,2.3,0.1,5.5,0.1,5.8c0,0.4-0.3,1.6-0.3,2c0,0.3,0.1,0.7,0.1,1.1c0,2.3-1.1,4.6-2.7,6
		c-1.6,0.1-2-1.4-2-2.8c0-0.3,0-0.5,0-0.8C196.7,395.5,196.3,395.2,195.9,395.2z M181.6,372c0-0.1,0.1,0,0.1-0.3
		c0-0.1-0.1-0.1-0.3-0.1C181.5,371.7,181.5,372,181.6,372z M187.7,393.2c0.3,0.1,1,0.3,1,0.3l0.3-0.1h4.9c0.4-0.1,1.3-0.3,1.7-0.3
		c0.2,0,0.4,0,0.7,0c0.4,0,1,0.2,1-1.7c0-0.9,0-2.6,0.1-3c0,0.1-0.1-1.1-0.1-1.4c0-0.4,0.1-2.1,0.1-2.5l-0.1-0.1v-2.6
		c-0.3-0.6-0.2-2.3-0.8-2.1c-0.4,0-0.9,0.1-1,0.1l-0.4-0.1c-1.2-0.1-2.1,0.1-2.7,0.1c-2.6,0-5.4-0.4-5.4,1.9c0,0.6,0.3,1.8,0.9,2
		c1.8,0,3.7-0.5,6-0.5c1.5,0,1.6,0,1.6,1.4c0,0.1,0,0.3-0.3,0.4c-5.3,1-8.1-0.3-8.1,2.1c0,0.8,0.2,1.7,1.4,1.7
		c0.3,0,0.3-0.3,0.5-0.3c0.4,0,0.5,0.1,0.6,0.1c0.4,0,3.2-0.4,3.7-0.4c0.3,0,0.5,0,0.7-0.1c0.4,0,1.4,0.3,1.4,0.8
		c0,0.4,0,0.8-0.3,1.1c-2.9,0.8-5,0.2-7.2,0.7c-0.8,0-0.6,0.7-0.6,1C187.3,392.1,187.3,393.1,187.7,393.2z M198.3,386.2
		C198.3,386.3,198.3,386.3,198.3,386.2c0.2,0.1,0.2,0,0.2,0c0-0.1,0-0.2-0.1-0.2S198.3,386.1,198.3,386.2z"/>
	<path class="st0" d="M166.7,449.8c0.4-0.3,1.1-0.8,1.4-1.1c0.8-0.5,3.6-2.4,4.7-3.9c1.4-0.9,1.4-1.9,2.7-2.8c1.2-1.8,2-4.2,3.4-5.9
		c0-0.8,0.9-2.1,1.1-3c0.1-0.3,0.6-2.4,0.7-2.7c0.9-2.5,1.1-5.4,1.9-7.9c0-0.2,0.3-0.6,0.3-0.8c0-0.8,0-4.1,0.1-4.5l0.1-0.1
		c0,0,0.1-1.4,0.1-2c0.4-2.4-1.8-2.5-1.8-3c0-0.3,1.5-1.3,1.7-1.3c1,0,1.2-1.2,2.5-1.1c0.4,0.3,2.7,1.3,3.1,1.6
		c0.7,0.4,2.3,0.7,2.3,1.8c0,0.6-1.4,1.4-1.4,2.1v4.1c0.4,0.8,0.3,1.7,0.4,2.5c0.4,0.7,0.4,1.4,0.6,2.3c0.6,1.4,1,2.6,1.6,3.9
		c0.7,1.8,1.8,3.4,2.7,4.9c0.4,1.4,1.6,2.3,2.4,3c0.1,0.5,1.4,1.6,2.3,2.5c0.6,0.3,1.7,2.3,2.5,2.3c0.1,0.7,2.3,1.2,3.1,2.3
		c0.8,0.6,1.9,0.8,2.7,1.3c0.3,0.1,1.4,0.8,1.7,0.9c0.2,1-1.9,1.3-2.5,1.4c-1,0-1.3,0.8-1.9,0.8c-0.3,0-1.7,0.6-2.7,0.9
		c-0.3,0-0.5,0-0.8-0.3c-2.7-2.8-4.5-4.5-6.8-6.8c-0.1-0.2-0.9-1.9-1.1-2c-0.9-1.3-1.3-2-1.8-3c-0.5-0.9-1-1.8-1.4-2.8
		c-0.3-1.5-0.7-3-1-4.5c0-0.1-0.3-1-0.3-1.1c-0.5-0.8-0.3-2.1-0.3-2.7c0-0.2-0.4-3.2-0.4-5c0-0.1,0-0.3,0-0.5c0-0.3,0-0.7-0.4-0.7
		c-0.1,0-0.3,0-0.3,0.1l-0.4,2.3c-0.4,0.6-0.3,1.3-0.4,2c0,0.2-0.3,0.8-0.3,0.8c0,1.2-0.7,2.2-1,3.3c-0.3,0.8-0.5,2-0.7,2.8
		c-0.2,0.8-0.7,1.4-0.8,1.8c0.1,1-0.8,2.2-1.3,3.1c-0.6,1.1-1.3,2.2-2,3.3c-0.5,1.1-1.6,2.4-2.7,3.2c-0.1,0.2-0.7,1-0.8,1.1
		c0,0.2-0.9,0.7-1.2,1.2c-0.3,0.3-0.3,0.7-0.6,0.8c-0.3,0-4.7,3.5-6,4.3c-1.3,0.8-3.2,2.4-4.2,2.4c-0.2,0-0.7,0.1-0.7-0.3
		C165.1,450.6,166,450.3,166.7,449.8z"/>
	<path class="st0" d="M167,499.9c0,0.3-0.1,0.3-0.4,0.3V500C166.9,500,166.9,499.9,167,499.9z M170.7,498.3c-0.4,0.1,1.7-1,5.1-2.7
		c1-1.1,2.4-1.5,3.5-2.3c0.4-0.6,1.2-0.8,1.4-1.3c2.4-2.9,4.3-4.1,4.3-5.8c0-1.1-0.3-2-0.6-3.1c-0.5-2.2-1.6-7.5-2.4-7.5
		c-0.3,0-0.3,0-0.6,0.3l-2.5,2.6c-0.1,0.4-0.6,1-1.1,1c-0.4,0-2.1-1-2.1-1.4c0.1-0.2,0.6-0.6,0.7-0.8c0.4,0,1.5-0.3,2.4-1.7
		c0.6-0.3,1-0.6,1.7-0.8c1.7-0.6,1.3-5,1.8-4.8c1.6-0.2,2.5,1.7,2.5,2.4c0.2,0.4-1.2,0.3-1.2,2.3c0,0.4,3,7,4,7c1,0.3,1.6-1.1,2-2.3
		c0.7-0.8,0.9-1.9,1.3-3c0-0.1,0.6-0.9,0.6-1.1c0-0.8,0.8-1.6,1.1-2.6c0-1.6,1-3.2,1.4-4.8c0.1-0.5-0.6-0.8-1.6-0.8
		c-0.1,0-0.4,0.2-0.6,0.2c-0.4,0-0.9-0.2-1.4-0.2c-2.1,0-4.3,0.3-6.5,0.3c-0.4,0-0.8,0-1.2,0c-0.3,0.3-0.7,0.3-1.1,0.3
		c-0.3,0-0.7,0-1,0c-0.3,0-0.7,0.3-1,0.3c-1.1,0.3-2.4,0.5-3.5,0.8c-0.1,0-0.7,0.3-0.8,0.3c-1.5,0-1.7,0.5-2.4,0.7
		c-1.5,0.1-2.5,0.8-3.1,0.8c-0.8,0-1.1-1.5-1.6-2.1c-0.1-0.3-0.8-1.1-0.8-1.4c0,0,0.2-0.3,0.3-0.3c-0.1,0,4.5,0.1,7.2,0.1
		c0.1,0,0.8,0.2,1,0.2c0.1,0.4,0.8-0.7,1.3-0.7c0.8,0,2.1-0.1,3.2-0.1c-0.1,0,3.9,0,4.4-1.4c0.1-0.5,0.1-0.8,0.4-1.3
		c0-2.5-0.1-3.4-1.2-5.1c-0.3-0.6-1.6-0.7-1.6-1.4c0-0.7,1.4-0.7,2-0.8c0.8-0.3,1.6-0.8,2.4-0.8c2.4,0,1.8,0.7,2.6,0.8
		c1.1,0.4,2.6,0.5,3.6,1.3c0,0.8-0.8,0.9-1.4,1.4c-0.4,0.5-0.8,0.9-1.1,1.5c0,0.6-0.2,2.8-0.2,3.4c-0.1,2.5,2,2,5.4,2
		c0.4,0.2,1,0.3,1.4,0.3c0.9,0,1.9-0.6,2.5-1.1c-0.2,0.2,2.3-2.5,3.1-2.5c0.8,0.5,0.7,0.7,1.3,1.1c2.3,2.1,3.4,2.1,3.4,4.3
		c0,0.8,0,0.9-1,1.1c-0.4,0.1-0.8-0.3-1.2-0.3c-2.3-0.6-4.7-0.8-7-0.8l-0.8-0.3h-2.4c-0.1,0-0.1,0.1-0.1,0.3c0,0.1,0.8,1.7,1,1.8
		c0.2-0.2,1.1,0.8,1.7,1.4c0.4,0.5,1.6,0.8,1.6,1.6c-0.3,0.7-1,1.1-1.6,1.5c-0.3,0.3-1.3,0.8-1.4,1.1c0,1.7-1,2.2-1.7,3.3
		c-0.4,0.6-0.6,1.3-1,1.8c-1,1.6-2.1,3.1-3.4,4.4c-0.4,0.6,1.8,3.2,2.5,3.4c1.3,0,1.6,1.1,2.6,1.5c1,0.1,1.6,0.8,2.5,1.1
		c0.8,0.3,1.4,0.6,2.1,0.9c0.6,0,1.1,0.8,1.6,0.8c1.8,0.9,3.9,1.5,5.9,1.7c0.2,0.1,0.3,0.3,0.3,0.6c-0.8,0.1-1.2,0.8-1.5,0.8
		c0,0-1.2,0.6-1.9,0.9c-0.1,0-0.6,0.8-0.7,0.8c-0.9,0.4-1,1.4-1.8,1.4c-0.4,0-1.1-0.2-1.4-0.3c-0.1,0-0.7-0.6-0.8-0.6
		c-0.4-0.3-1.1-0.2-1.6-0.5c-0.3-0.3-0.8-0.7-1-0.8c-0.1-0.1-1.6-0.7-1.7-0.8c-0.1-0.1-1.3-1.1-1.4-1.2c-0.7-0.6-1.5-1.1-2.1-1.7
		c-0.6-0.8-0.3,0.1-4.1-3.7c-0.8-0.1-1.4,1-2,1.5c-0.2,0-0.6,0-0.4,0.4c-3.6,3.6-4.4,3.1-6,4.7c-0.1,0-0.1,0-0.1,0
		c-0.2,0-0.6,0.6-0.8,0.7c-1.6,0.8-3.1,1.4-4.7,2.3c-0.6,0.6-1.3,0.5-1.8,0.8c-1.4,0-1.6,0.8-3.4,0.8c-0.1,0-0.4-0.2-0.4-0.2
		C167.8,499.4,169.5,499.1,170.7,498.3z M186.2,456.3c0-0.2,0.1-0.5,0.1-0.6l-0.1-0.2c-0.3,0.2-0.3,0.3-0.3,0.5
		C185.9,456.1,185.9,456.3,186.2,456.3z M187.3,455.7C187.3,455.8,187.3,455.8,187.3,455.7c0.1,0.1,0.2,0,0.2,0
		c0-0.1-0.1-0.2-0.1-0.2S187.3,455.6,187.3,455.7z M187.3,456C187.3,456,187.3,456.1,187.3,456c0.1,0.1,0.2,0,0.2,0
		c0-0.1-0.1-0.2-0.1-0.2S187.3,455.9,187.3,456z M192.5,492.3c0,0,0,0.1,0.1,0.1c0,0,0.1,0,0.1-0.1c0-0.1,0-0.2-0.1-0.2
		C192.5,492.1,192.5,492.2,192.5,492.3z M196.6,491.1c0,0.1,0,0.1,0.1,0.1s0.1,0,0.1-0.1s0-0.1-0.1-0.1S196.6,491,196.6,491.1z
		 M196.6,491.9c0,0.1,0,0.1,0.1,0.1s0.1,0,0.1-0.1c0-0.1,0-0.1-0.1-0.1S196.6,491.8,196.6,491.9z"/>
</g>
<g>
	<circle class="st0" cx="191.7" cy="567.5" r="26.3"/>
	<g>
		<g>
			<g>
				<path class="st1" d="M191.7,553.1c-0.3,0.6-6.1,10.5-6.1,10.5"/>
				<path class="st1" d="M186,563.8l-0.8-0.5c0.2-0.4,5.8-9.9,6.1-10.5h1.2C192.2,553.4,186.1,563.7,186,563.8z"/>
			</g>
			<g>
				<line class="st1" x1="187.5" y1="559.8" x2="195.6" y2="559.8"/>
				<polygon class="st1" points="187.5,560.3 187.5,559.4 196.2,559.3 195.6,560.3 				"/>
			</g>
			<g>
				<line class="st1" x1="170.7" y1="563.6" x2="194.9" y2="563.6"/>
				<polygon class="st1" points="194.9,564.1 170.7,564.1 171.5,563.1 194.9,563.1 				"/>
			</g>
			<g>
				<line class="st1" x1="192" y1="560" x2="184.3" y2="574.2"/>
				
					<rect x="180.1" y="566.6" transform="matrix(0.4714 -0.8819 0.8819 0.4714 -400.6731 465.6935)" class="st1" width="16.2" height="1"/>
			</g>
		</g>
		<path class="st1" d="M198.1,566.6H193l4-7.3l4.9,0L198.1,566.6z M194.6,565.7h2.9l2.8-5.4l-2.7,0L194.6,565.7z"/>
		<g>
			<polygon class="st1" points="195.9,580.9 183.2,580.8 185.3,577 193.2,577.2 195.5,572.6 188.7,572.6 187.7,574.5 193.1,574.5 
				192.5,575.5 186.1,575.5 188.2,571.7 197.1,571.7 193.7,578.2 185.8,578 184.8,579.9 195.3,580 198.9,572.9 214.4,572.8 
				213.8,573.9 199.5,573.8 			"/>
			
				<rect x="190.6" y="570.2" transform="matrix(0.4101 -0.912 0.912 0.4101 -407.1347 511.7922)" class="st1" width="2.9" height="1"/>
			<polygon class="st1" points="181.1,581.2 180.1,581.1 186.7,568.8 198.3,568.8 197.7,569.8 187.2,569.8 			"/>
			
				<rect x="193.5" y="567.3" transform="matrix(0.4708 -0.8823 0.8823 0.4708 -397.5374 472.767)" class="st1" width="3.6" height="1"/>
		</g>
		<g>
			<line class="st1" x1="193.1" y1="563.6" x2="190" y2="569.5"/>
			
				<rect x="188.2" y="566.1" transform="matrix(0.4688 -0.8833 0.8833 0.4688 -398.6916 470.1071)" class="st1" width="6.7" height="1"/>
		</g>
	</g>
</g>
<g>
</g>
<g>
</g>
<g>
</g>
<g>
</g>
<g>
</g>
<g>
</g>
<g>
</g>
<g>
</g>
<g>
</g>
<g>
</g>
<g>
</g>
<g>
</g>
<g>
</g>
<g>
</g>
<g>
</g>
</svg>
