<?xml version="1.0" encoding="utf-8"?>
<!-- Generator: Adobe Illustrator 21.0.0, SVG Export Plug-In . SVG Version: 6.00 Build 0)  -->
<svg version="1.1" id="图层_1" xmlns="http://www.w3.org/2000/svg" xmlns:xlink="http://www.w3.org/1999/xlink" x="0px" y="0px"
	 viewBox="0 0 92.1 92.1" style="enable-background:new 0 0 92.1 92.1;" xml:space="preserve">
<style type="text/css">
	.st0{opacity:0.13;}
</style>
<g class="st0">
	<path d="M46.1,10.6c0,1.4-1.4,2.5-4.2,4.4C27.2,25.9,20.6,35.3,20.6,42c0,3.9,2.5,6.7,6.7,8.3c6.4,2.2,8.9,6.9,8.9,11.7
		c0,3.6-1.9,13.6-12.8,13.6c-8.3,0-19.2-6.4-19.2-21.4C4.2,38.4,18.3,22,37.5,7.3c1.4-1.1,2.2-1.4,3.3-1.4c1.4,0,2.5,0.6,3.6,1.9
		C45.5,9,46.1,9.8,46.1,10.6z M89.1,10.6c0,1.4-1.4,2.5-4.2,4.4C70.3,25.9,63.6,35.3,63.6,42c0,3.9,2.5,6.7,6.7,8.3
		c6.4,2.2,8.9,6.9,8.9,11.7c0,3.6-1.9,13.6-12.8,13.6c-8.3,0-19.2-6.4-19.2-21.4c0-15.8,14.2-32.2,33.3-46.9
		c1.4-1.1,2.2-1.4,3.3-1.4C86.4,5.9,89.1,9.2,89.1,10.6z"/>
</g>
<g>
</g>
<g>
</g>
<g>
</g>
<g>
</g>
<g>
</g>
<g>
</g>
<g>
</g>
<g>
</g>
<g>
</g>
<g>
</g>
<g>
</g>
<g>
</g>
<g>
</g>
<g>
</g>
<g>
</g>
</svg>
