<?xml version="1.0" encoding="utf-8"?>
<!-- Generator: Adobe Illustrator 21.0.0, SVG Export Plug-In . SVG Version: 6.00 Build 0)  -->
<svg version="1.1" id="图层_1" xmlns="http://www.w3.org/2000/svg" xmlns:xlink="http://www.w3.org/1999/xlink" x="0px" y="0px"
	 viewBox="0 0 300 300" style="enable-background:new 0 0 300 300;" xml:space="preserve">
<style type="text/css">
	.st0{fill:#FFFFFF;}
	.st1{fill:#F8F8F8;}
	.st2{fill:#50A39B;}
</style>
<g>
	<g>
		<path class="st0" d="M24,150C24,80.5,80.5,24,150,24s126,56.5,126,126s-56.5,126-126,126S24,219.5,24,150z"/>
		<path class="st1" d="M270,150c0,32.1-12.5,62.2-35.1,84.9S182.1,270,150,270s-62.2-12.5-84.9-35.1S30,182.1,30,150
			s12.5-62.2,35.1-84.9S117.9,30,150,30s62.2,12.5,84.9,35.1S270,117.9,270,150 M282,150c0-72.9-59.1-132-132-132S18,77.1,18,150
			s59.1,132,132,132S282,222.9,282,150L282,150z"/>
	</g>
	<g>
		<circle class="st2" cx="150.6" cy="24.1" r="13.2"/>
	</g>
</g>
</svg>
