<?xml version="1.0" encoding="utf-8"?>
<!-- Generator: Adobe Illustrator 21.0.0, SVG Export Plug-In . SVG Version: 6.00 Build 0)  -->
<svg version="1.1" id="图层_1" xmlns="http://www.w3.org/2000/svg" xmlns:xlink="http://www.w3.org/1999/xlink" x="0px" y="0px"
	 viewBox="0 0 30 30" style="enable-background:new 0 0 30 30;" xml:space="preserve">
<style type="text/css">
	.st0{fill:#5B5B5B;}
</style>
<path id="book_2_" class="st0" d="M27.1,0c-8.9,0-15,0-24,0C1.4,0,0,0.9,0,2.6v21C0,25.3,1.4,27,3.1,27h10.4v1.1
	c0,0.8,0.7,1.5,1.5,1.5c0.8,0,1.5-0.7,1.5-1.5V27h10.6c1.7,0,2.9-1.7,2.9-3.4v-21C30,0.9,28.7,0,27.1,0z M13.5,24H4.6
	C3.8,24,3,22.9,3,22.1v-18C3,3.3,3.8,3,4.6,3h8.9V24z M27,22.1c0,0.8-0.6,1.9-1.4,1.9h-9.1V3h9.1C26.4,3,27,3.3,27,4.1V22.1z"/>
</svg>
