<?xml version="1.0" encoding="utf-8"?>
<!-- Generator: Adobe Illustrator 21.0.0, SVG Export Plug-In . SVG Version: 6.00 Build 0)  -->
<svg version="1.1" id="图层_1" xmlns="http://www.w3.org/2000/svg" xmlns:xlink="http://www.w3.org/1999/xlink" x="0px" y="0px"
	 viewBox="0 0 30 30" style="enable-background:new 0 0 30 30;" xml:space="preserve">
<style type="text/css">
	.st0{fill:#CCCCCC;}
</style>
<path id="clock_4_" class="st0" d="M24,16.5c0,0.8-0.7,1.5-1.5,1.5h-6c-1.7,0-3-1.3-3-3V7.5C13.5,6.7,14.2,6,15,6
	c0.8,0,1.5,0.7,1.5,1.5v6c0,0.8,0.7,1.5,1.5,1.5h4.5C23.3,15,24,15.7,24,16.5z M30,15c0,8.3-6.7,15-15,15S0,23.3,0,15
	C0,6.7,6.7,0,15,0S30,6.7,30,15z M27,15c0-6.6-5.4-12-12-12S3,8.4,3,15c0,6.6,5.4,12,12,12S27,21.6,27,15z"/>
</svg>
