<?xml version="1.0" encoding="utf-8"?>
<!-- Generator: Adobe Illustrator 21.0.0, SVG Export Plug-In . SVG Version: 6.00 Build 0)  -->
<svg version="1.1" id="图层_1" xmlns="http://www.w3.org/2000/svg" xmlns:xlink="http://www.w3.org/1999/xlink" x="0px" y="0px"
	 viewBox="0 0 100 100" style="enable-background:new 0 0 100 100;" xml:space="preserve">
<path id="message_x5F_three_x5F_points" d="M99.6,84.3c0,0-1.4-5.3-1.4-5.3c-1.5-5.8-1.8-11.9-0.3-17.7c1.9-7.1,2.3-14.9,0.5-22.9
	C93.8,17,74.3,0,49.8,0C20,0-3.7,25.6,0.5,55.6c3.2,23.2,23.9,42,49.3,42c7.3,0,8.8-1.3,15.3-1.3c7.8,0,18.9,3.3,18.9,3.3
	C93.4,102,102,93.6,99.6,84.3z M87.2,90c0,0-13.1-3.7-22.1-3.7c-7.4,0-9.1,1.3-15.3,1.3c-20.4,0-36.9-15-39.4-33.3
	C7,30,26.3,10,49.8,10C69.5,10,85,23.5,88.7,40.4c1.3,6.2,1.2,12.3-0.4,18.2c-1.9,7-1.8,14.9,0.2,22.8C89.6,85.5,91.5,90,87.2,90z
	 M34.4,49.7c0,5.5-4.5,10-10,10s-10-4.5-10-10c0-5.5,4.5-10,10-10S34.4,44.2,34.4,49.7z M59.4,49.7c0,5.5-4.5,10-10,10
	s-10-4.5-10-10c0-5.5,4.5-10,10-10S59.4,44.2,59.4,49.7z M84.4,49.7c0,5.5-4.5,10-10,10c-5.5,0-10-4.5-10-10c0-5.5,4.5-10,10-10
	C79.9,39.7,84.4,44.2,84.4,49.7z"/>
</svg>
