<?xml version="1.0" encoding="utf-8"?>
<!-- Generator: Adobe Illustrator 21.0.0, SVG Export Plug-In . SVG Version: 6.00 Build 0)  -->
<svg version="1.1" id="图层_1" xmlns="http://www.w3.org/2000/svg" xmlns:xlink="http://www.w3.org/1999/xlink" x="0px" y="0px"
	 viewBox="0 0 100 100" style="enable-background:new 0 0 100 100;" xml:space="preserve">
<path id="emoji_x5F_neutral_x5F_square_x5F_glasses_4_" d="M0,0c0,33.3,0,66.6,0,100h100c0-39.2,0-66.1,0-100H0z M10,30h20v12.9
	c0,2.8-2.2,7.1-5,7.1H10V30z M90,90H10V60h20c5.5,0,10-6.6,10-12.1V30h20v17.9C60,53.4,64.5,60,70,60h20V90z M70,42.9V30h20v20H75
	C72.2,50,70,45.7,70,42.9z M10,20V10h80v10C60.6,20,39.1,20,10,20z M30,70h40v10H30V70z"/>
</svg>
