<?xml version="1.0" encoding="utf-8"?>
<!-- Generator: Adobe Illustrator 21.0.0, SVG Export Plug-In . SVG Version: 6.00 Build 0)  -->
<svg version="1.1" id="图层_1" xmlns="http://www.w3.org/2000/svg" xmlns:xlink="http://www.w3.org/1999/xlink" x="0px" y="0px"
	 viewBox="0 0 100 100" style="enable-background:new 0 0 100 100;" xml:space="preserve">
<path id="love" d="M51.9,23.5c-0.5,0.6-1.2,0.9-2,0.9c-0.7,0-1.4-0.3-1.9-0.9C30.3,1.9-0.9,12.7,0,39.3C0.8,60.6,15.8,71.1,33.5,86
	c4.7,4,10.6,6,16.5,6c5.9,0,11.8-2,16.5-6C84.1,71.1,98.9,60.6,100,40C101.3,12.7,69.6,1.8,51.9,23.5z M60,78.7
	c-2.7,2.3-6.3,3.6-9.9,3.6c-3.6,0-7.2-1.3-10-3.7C22,63.5,10.6,55.5,10,39c-0.6-17.4,18.5-23.8,30.2-9.5c2.4,2.9,5.9,4.6,9.8,4.6
	c3.9,0,7.5-1.7,9.8-4.6c11.5-14.1,31.1-8.1,30.2,10C89.2,55.7,77.3,64,60,78.7z"/>
</svg>
