<?xml version="1.0" encoding="utf-8"?>
<!-- Generator: Adobe Illustrator 21.0.0, SVG Export Plug-In . SVG Version: 6.00 Build 0)  -->
<svg version="1.1" id="图层_1" xmlns="http://www.w3.org/2000/svg" xmlns:xlink="http://www.w3.org/1999/xlink" x="0px" y="0px"
	 viewBox="0 0 283.5 283.5" style="enable-background:new 0 0 283.5 283.5;" xml:space="preserve">
<path id="important_x5F_message" d="M0,0c0,129.1,0,152.2,0,283c57.4,0,217.5,0,283,0c0-95.1,0-189.2,0-283C217.4,0,57.2,0,0,0z
	 M254.7,254.7H28.3V28.3h226.4V254.7z M155.6,205.3c0,7.8-6.3,14.1-14.1,14.1s-14.2-6.3-14.2-14.1c0-7.8,6.3-14.2,14.2-14.2
	S155.6,197.5,155.6,205.3z M127.3,162.9V63.8c0-7.8,6.3-14.1,14.2-14.1s14.1,6.3,14.1,14.1v99.1c0,7.8-6.3,14.1-14.1,14.1
	S127.3,170.7,127.3,162.9z"/>
</svg>
