<?xml version="1.0" encoding="utf-8"?>
<!-- Generator: Adobe Illustrator 21.0.0, SVG Export Plug-In . SVG Version: 6.00 Build 0)  -->
<svg version="1.1" id="图层_1" xmlns="http://www.w3.org/2000/svg" xmlns:xlink="http://www.w3.org/1999/xlink" x="0px" y="0px"
	 viewBox="0 0 300 300" style="enable-background:new 0 0 300 300;" xml:space="preserve">
<style type="text/css">
	.st0{fill:#333333;}
</style>
<path id="question_1_" class="st0" d="M0,0c0,136.9,0,161.3,0,300c69.5,0,239.4,0,300,0c0-100.8,0-200.5,0-300C239.2,0,69.4,0,0,0z
	 M270,270H30V30h240V270z M86.7,75c0-8.3,6.7-15,15-15h85.7c12.5,0,22.7,10.2,22.7,22.7V120c0,16.5-13.5,30-30,30h-22.4
	c-4.2,0-7.6,3.4-7.6,7.6v15c0,8.3-6.7,15-15,15s-15-6.7-15-15v-26c0-14.7,11.9-26.7,26.7-26.7h15c8.3,0,15-6.7,15-15
	c0-8.3-6.7-15-15-15h-60C93.4,90,86.7,83.3,86.7,75z M146.7,217.7c0,8.3-6.7,15-15,15s-15-6.7-15-15c0-8.3,6.7-15,15-15
	S146.7,209.4,146.7,217.7z"/>
</svg>
