<?xml version="1.0" encoding="utf-8"?>
<!-- Generator: Adobe Illustrator 21.0.0, SVG Export Plug-In . SVG Version: 6.00 Build 0)  -->
<svg version="1.1" id="图层_1" xmlns="http://www.w3.org/2000/svg" xmlns:xlink="http://www.w3.org/1999/xlink" x="0px" y="0px"
	 viewBox="0 0 100 100" style="enable-background:new 0 0 100 100;" xml:space="preserve">
<style type="text/css">
	.st0{fill:#333333;}
</style>
<path id="share_2_" class="st0" d="M80,29.4c-6.1,0-11.5,2.8-15.2,7.1L39.8,22C41.1,9.6,31.3,0,20,0C9,0,0,9,0,20c0,11,9,20,20,20
	c6.7,0,12.7-3.4,16.3-8.5l24.1,13.9c-0.5,2.7-0.5,5.3,0,8.1L35.7,67.8C32,63.1,26.4,60,20,60C9,60,0,69,0,80c0,11,9,20,20,20
	c11.8,0,21.6-10.4,19.7-23L65,62.4c3.7,4.2,9,6.9,15,6.9c11,0,20-9,20-20C100,38.3,91,29.4,80,29.4z M20,30c-5.5,0-10-4.5-10-10
	c0-5.5,4.5-10,10-10C33.2,10,33.2,30,20,30z M20,90c-5.5,0-10-4.5-10-10c0-5.5,4.5-10,10-10C33.2,70,33.2,90,20,90z M80,59.4
	c-5.5,0-10-4.5-10-10c0-5.5,4.5-10,10-10s10,4.5,10,10C90,54.9,85.5,59.4,80,59.4z"/>
</svg>
