<?xml version="1.0" encoding="utf-8"?>
<!-- Generator: Adobe Illustrator 21.0.0, SVG Export Plug-In . SVG Version: 6.00 Build 0)  -->
<svg version="1.1" id="图层_1" xmlns="http://www.w3.org/2000/svg" xmlns:xlink="http://www.w3.org/1999/xlink" x="0px" y="0px"
	 viewBox="0 0 283.5 139" style="enable-background:new 0 0 283.5 139;" xml:space="preserve">
<g>
	<path d="M47.5,39H48c-8.9,5.5-20.1,12.4-33.5,20.8c-1.9,1.5-3,1.3-3.4-0.5c-0.8-1.1-1.9-3.5-3.4-7.1C6.3,48.8,5.4,46.5,5,45
		c-0.8-0.7-0.9-1.3-0.6-1.6c0-0.4,0.7-0.5,2.2-0.5c13.8-1.1,27.4-3.1,40.8-6V22.5H20.1c-3.7,0-6.9,0-9.5,0l-2.8-3.8
		c1.5,0.4,3,0.5,4.5,0.5h35.2V5c5.2,0,10.2,1.3,15.1,3.8c1.1,1.1,1.1,2,0,2.7c-0.4,0.4-0.9,0.7-1.7,1.1l-1.1,1.1v43.8
		c-1.9,1.8-4.8,2.7-8.9,2.7c-2.2-0.4-3.4-1.8-3.4-4.4V39z M97.2,117.3v-14.8H46.4v26.8c-3.4,2.9-8,4.2-14,3.8
		c-0.4-0.4-0.6-1.6-0.6-3.8c0.4-2.2,0.7-6,1.1-11.5V57.6c4.8,1.5,9.3,3.3,13.4,5.5h47.5c0.4,0,0.9-0.5,1.7-1.6
		c1.1-1.1,2-1.8,2.8-2.2c0.4-0.7,1.7-0.9,3.9-0.5c4.1,1.8,8,3.7,11.7,5.5c1.1,0.7,1.7,1.3,1.7,1.6c0,0.4-0.4,0.9-1.1,1.6
		c-0.4,1.1-1.3,2.2-2.8,3.3l1.7,53.1c-1.9,6.2-7.8,9.5-17.9,9.9c-0.4-0.4-0.8-0.9-1.1-1.6c-3.4-5.8-8.2-9.7-14.5-11.5
		c-3.4-0.7-3.4-1.1,0-1.1C90.7,121.3,96.5,120.6,97.2,117.3z M97.2,80.6V66.4H46.4v14.2H97.2z M97.2,99.8V83.9H46.4v15.9H97.2z
		 M91.1,27.5c8.6-6.9,15.6-13.1,21.2-18.6c0.7-1.5,2-1.5,3.9,0c3.4,2.6,7.4,5.7,12.3,9.3c0.7,1.1,1.1,1.8,1.1,2.2
		c0,0.4-0.4,0.5-1.1,0.5c-4.5,0.4-17,3.1-37.4,8.2v7.7c-0.4,4.4,1.7,6.4,6.1,6h17.9c8.2,0.7,14.7-5.7,19.6-19.2
		c1.5-3.6,1.9-3.6,1.1,0c-3.4,8-3.5,13.9-0.6,17.5c1.9,1.8,2.6,3.8,2.2,6C136,53,130.4,56,120.7,56H90.5
		c-7.5,0.4-11.2-3.1-11.2-10.4V14.9l-1.1-8.2l0.6-0.5C84,6.5,89,7.2,93.9,8.3c0.7,0.4,0.9,1.3,0.6,2.7c-0.4,0.4-0.9,0.9-1.7,1.6
		c-0.4,0.4-0.9,0.7-1.7,1.1V27.5z"/>
	<path d="M217.3,58.7h38c0.4-0.4,1.1-1.5,2.2-3.3c3.4-4,5.8-6.6,7.3-7.7c0.4-0.4,0.9-0.4,1.7,0c7.8,4.4,13.2,8.2,16.2,11.5
		c0.4,1.5,0,2.4-1.1,2.7H158.7c-3.7,0-6.9,0-9.5,0l-4.5-3.8c1.9,0.4,3.9,0.5,6.1,0.5h57c-0.8,0-1.1-0.4-1.1-1.1
		c-0.8-0.4-1.3-1.5-1.7-3.3c-0.4-4.4-2.2-7.7-5.6-9.9c-0.8-1.1-0.6-1.8,0.6-2.2c10.4,0.7,16.6,2.9,18.4,6.6
		C220.7,52.9,220.3,56.1,217.3,58.7z M184.4,98.1c1.5,0.7,5,2.9,10.6,6.6c0.7,0.7,1.7,1.3,2.8,1.6c0.4,1.5,0.2,2.4-0.6,2.7
		c-0.8,0.4-1.7,0.7-2.8,1.1c-1.5,0-2.4,0-2.8,0c-12.7,6.9-27.6,12.8-44.7,17.5c-0.8-0.4-1.1-0.7-1.1-1.1c-0.4-0.4-0.2-0.5,0.6-0.5
		c15.3-8,27.2-17.3,35.8-27.9C182.9,98.1,183.6,98.1,184.4,98.1z M168.2,47.2l1.7-32.3c0-4.7-0.2-8.4-0.6-11
		c-0.4-0.4,0.2-0.5,1.7-0.5c5.2,1.5,9.3,3.5,12.3,6h50.8c3-3.3,5.2-5.3,6.7-6c0.7,0,1.3,0,1.7,0c7.1,2.2,11.9,4.9,14.5,8.2
		c0.4,0.4,0.4,1.1,0,2.2c-0.8,0.7-1.5,1.3-2.2,1.6c-0.4,0.4-0.8,0.5-1.1,0.5l1.1,28.5c-7.5,6.9-12.9,7.3-16.2,1.1v-4.4h-55.3v3.3
		c-0.4,2.6-2.8,4.4-7.3,5.5C170.8,50.7,168.2,49.7,168.2,47.2z M205.6,118.4V92.6h-19.6c-7.1,5.1-11.9,5.5-14.5,1.1l1.1-18.6v-8.8
		c4.5,0.7,8.2,2.2,11.2,4.4h51.4c0.4-0.4,0.9-0.9,1.7-1.6c1.9-2.2,3.4-3.6,4.5-4.4c0.4,0,0.9,0,1.7,0c4.8,1.5,9.1,3.8,12.9,7.1
		c0.4,0.7,0.4,1.5,0,2.2c-0.8,1.1-1.9,1.8-3.4,2.2l0.6,16.4c-5.2,4.7-10.1,5.1-14.5,1.1v-1.1h-13.4c0.7,1.5-0.6,2.7-3.9,3.8
		l1.1,28.5c-0.4,4.4-6,7.8-16.8,10.4c-1.1,0-1.9-0.2-2.2-0.5c-2.2-6.6-7.3-11.1-15.1-13.7c-1.1-1.1-0.9-1.6,0.6-1.6
		C200,120.6,205.6,120.2,205.6,118.4z M183.3,12.1v11.5h55.3V12.1H183.3z M183.3,26.9v11.5h55.3V26.9H183.3z M186.1,73.5v15.9h52.5
		V73.5H186.1z M229.1,100.3c20.5,0,33.7,4,39.7,12c2.2,4.7,1.7,8.4-1.7,11c-4.1,2.5-8.4,2.4-12.9-0.5c-0.8-0.7-1.9-1.8-3.4-3.3
		c-6-9.1-13.4-14.8-22.3-17C227.4,101.8,227.6,101,229.1,100.3z"/>
</g>
</svg>
