<?xml version="1.0" encoding="utf-8"?>
<!-- Generator: Adobe Illustrator 21.0.0, SVG Export Plug-In . SVG Version: 6.00 Build 0)  -->
<svg version="1.1" id="图层_1" xmlns="http://www.w3.org/2000/svg" xmlns:xlink="http://www.w3.org/1999/xlink" x="0px" y="0px"
	 viewBox="0 0 283.5 139" style="enable-background:new 0 0 283.5 139;" xml:space="preserve">
<g>
	<path d="M20.1,104.7V53.2h-7.3c-3,0.4-6,0.5-8.9,0.5l-2.8-4.4c0.4,0.4,2.2,0.5,5.6,0.5h10.1c2.6-3.6,4.7-5.5,6.1-5.5
		c5.2,1.5,10.2,4,15.1,7.7c-0.4,0.7-1.3,1.8-2.8,3.3l-1.7,2.2v49.8c12.3-7.3,19.9-11.9,22.9-13.7c1.5,0.7,2,1.5,1.7,2.2
		c-1.9,2.2-6.5,7.3-14,15.3c-6.7,6.9-11.5,12.4-14.5,16.4c-1.1,0.4-2.1,0.4-2.8,0c-0.8-0.7-1.7-1.8-2.8-3.3c-3-3.3-5-5.7-6.1-7.1
		c-0.4-1.1-0.2-2,0.6-2.7C19.2,112.4,19.7,109.1,20.1,104.7z M14.5,6.1c12.3,2.6,20.3,6.8,24,12.6c2.2,5.5,0.9,9.9-3.9,13.1
		c-5.6,2.9-9.5,2-11.7-2.7c-0.8-0.7-1.3-3.5-1.7-8.2c-1.5-4-4.3-8.2-8.4-12.6C12.5,6.9,13,6.1,14.5,6.1z M111.7,132.1
		c-0.8,2.2-3.7,3.6-8.9,4.4c-4.1,0-6.1-1.3-6.1-3.8V83.9H81c-0.8,25.6-15.8,42.7-45.3,51.5c-1.5-0.4-1.7-1.3-0.6-2.7
		c20.5-8.8,31.3-25,32.4-48.7H55.9c-3,0-6,0-8.9,0L43.6,80c1.5,0.4,3.2,0.5,5,0.5h19V40.1h-7.3c-3,0-6,0-8.9,0L48,36.2
		c1.5,0.4,3.2,0.5,5,0.5h14.5v-23L67,5l1.1-0.5C75.2,5.6,80.6,7,84.4,8.9c0.4,0.7,0.4,1.5,0,2.2c-0.4,0.7-1.1,1.3-2.2,1.6
		c-0.4,0.4-0.8,0.7-1.1,1.1v23h16.2v-9.9V12.1l-0.6-8.2c0-0.4,0.4-0.7,1.1-1.1C102.6,3.6,108,5,114,7.2c0.4,0.7,0.4,1.5,0,2.2
		c-0.4,1.1-1.1,1.8-2.2,2.2l-1.1,0.5v14.8v9.9h1.7c0.4-0.4,1.7-2,3.9-4.9c2.2-2.5,3.7-4.2,4.5-4.9c-0.4,0,0.2,0,1.7,0
		c5.6,2.9,10.4,6.4,14.5,10.4c0.7,1.5,0.4,2.4-1.1,2.7h-25.1l0.6,40.5h3.9c0.4-0.4,1.7-2,3.9-4.9c2.2-2.5,3.7-4.2,4.5-4.9h1.1
		c0.4,0,0.7,0,1.1,0c6.7,4,11.4,7.5,14,10.4c0.7,1.5,0.6,2.4-0.6,2.7h-27.9L111.7,132.1z M96.7,80.6l0.6-40.5H81v40.5H96.7z"/>
	<path d="M262.6,18.7l-6.7,3.8c-9.3,31-20.9,54.4-34.6,70.1c16.8,12.8,36.9,20.3,60.3,22.5c0.4,1.8,0.4,3.3,0,4.4
		c-8.6,1.8-14.9,6.9-19,15.3c-1.1,1.1-2.4,1.6-3.9,1.6c-19.4-9.1-35.4-19.9-48-32.3c-14.2,12.4-35.2,23.2-63.1,32.3
		c-2.2-1.5-2.6-2.7-1.1-3.8c22.7-8.8,41.3-21.4,55.9-37.8c-17.1-20.1-28.9-46.9-35.2-80.5c0.7-1.1,1.9-1.3,3.4-0.5
		c9.3,30.3,22.7,53.7,40.2,70.1c13.8-20.1,22.9-45.1,27.4-75c0.4-0.7,1.3-1.1,2.8-1.1c9.7,3.3,16.9,6,21.8,8.2
		C263,16.3,263,17.3,262.6,18.7z M191.6,3.9c14.5,5.8,23.1,13.1,25.7,21.9c1.9,6.6-0.4,11.3-6.7,14.2c-6.7,2.2-11.2,0.2-13.4-6
		c-0.8-0.7-0.9-2.4-0.6-4.9c0.4-1.5,0.6-2.7,0.6-3.8c0-5.1-2.6-11.5-7.8-19.2C189,4.7,189.8,3.9,191.6,3.9z"/>
</g>
</svg>
