<?xml version="1.0" encoding="utf-8"?>
<!-- Generator: Adobe Illustrator 21.0.0, SVG Export Plug-In . SVG Version: 6.00 Build 0)  -->
<svg version="1.1" id="图层_1" xmlns="http://www.w3.org/2000/svg" xmlns:xlink="http://www.w3.org/1999/xlink" x="0px" y="0px"
	 viewBox="0 0 100 100" style="enable-background:new 0 0 100 100;" xml:space="preserve">
<path id="delete" d="M75,20c0-7.7,0-12.7,0-20H25c0,7.3,0,12.3,0,20c-9.4,0-15.7,0-25,0v10h15v70c28.5,0,36.5,0,70,0V30h15V20
	C84.4,20,88.4,20,75,20z M35,10h30v10H35V10z M75,90H25V30h50V90z M65,80H55V40h10V80z M45,80H35V40h10V80z"/>
</svg>
