<?xml version="1.0" encoding="utf-8"?>
<!-- Generator: Adobe Illustrator 21.0.0, SVG Export Plug-In . SVG Version: 6.00 Build 0)  -->
<svg version="1.1" id="图层_1" xmlns="http://www.w3.org/2000/svg" xmlns:xlink="http://www.w3.org/1999/xlink" x="0px" y="0px"
	 viewBox="0 0 283.5 283.5" style="enable-background:new 0 0 283.5 283.5;" xml:space="preserve">
<path id="profile_x5F_image_x5F_plus" d="M196.4,196.9c0,0,0.1-0.8,0.1-1.3c0-41.2-25.3-76.4-61.2-91c7.4-8.6,12-19.6,12-31.9
	c0-23.6-16.6-43.3-38.8-48.1h113V160h24.6V0C145,0,93.9,0,0,0c0,377.9,0,187.8,0,246.1h160v-24.6H24.6v-24.6h-0.3
	c0,0-0.1-0.8-0.1-1.3c0-40.5,32.8-73.4,73.3-73.7c0.2,0,0.3,0.1,0.5,0.1c0.2,0,0.3-0.1,0.5-0.1c40.5,0.3,73.3,33.1,73.3,73.7
	c0,0.5-0.1,1.4-0.1,1.4H196.4z M61,104.5c-14.2,5.8-24.1,14.8-36.4,26.1v-106h63c-22.2,4.8-38.8,24.5-38.8,48.1
	C48.8,84.9,53.6,95.9,61,104.5z M98.6,97.2c-0.2,0-0.3,0-0.5,0s-0.3,0-0.5,0c-13.3-0.3-24.1-11.2-24.1-24.6
	c0-13.6,11-24.6,24.6-24.6s24.6,11,24.6,24.6C122.7,86.1,111.9,96.9,98.6,97.2z M283,221.5v24.6h-36.9V283h-24.6v-36.9h-36.9v-24.6
	h36.9v-36.9h24.6v36.9H283z"/>
</svg>
