<?xml version="1.0" encoding="utf-8"?>
<!-- Generator: Adobe Illustrator 21.0.0, SVG Export Plug-In . SVG Version: 6.00 Build 0)  -->
<svg version="1.1" id="图层_1" xmlns="http://www.w3.org/2000/svg" xmlns:xlink="http://www.w3.org/1999/xlink" x="0px" y="0px"
	 viewBox="0 0 30 30" style="enable-background:new 0 0 30 30;" xml:space="preserve">
<style type="text/css">
	.st0{fill:#CCCCCC;}
</style>
<path id="profile_3_" class="st0" d="M20.7,16c2.4-1.9,3.8-5,3.3-8.4c-0.6-3.9-3.9-7.1-7.8-7.5C10.7-0.6,6.1,3.7,6.1,9
	c0,2.8,1.3,5.4,3.4,7c-5,1.9-8.7,6.3-9.3,12.3C0.1,29.2,0.8,30,1.6,30c0.8,0,1.4-0.6,1.5-1.3C3.7,22,8.9,18,15.1,18
	c6.2,0,11.3,4,11.9,10.7c0.1,0.8,0.7,1.3,1.5,1.3c0.9,0,1.6-0.8,1.5-1.7C29.4,22.3,25.7,17.9,20.7,16z M15.1,15c-3.3,0-6-2.7-6-6
	s2.7-6,6-6s6,2.7,6,6S18.4,15,15.1,15z"/>
</svg>
