<?xml version="1.0" encoding="utf-8"?>
<!-- Generator: Adobe Illustrator 21.0.0, SVG Export Plug-In . SVG Version: 6.00 Build 0)  -->
<svg version="1.1" id="图层_1" xmlns="http://www.w3.org/2000/svg" xmlns:xlink="http://www.w3.org/1999/xlink" x="0px" y="0px"
	 viewBox="0 0 375 375" style="enable-background:new 0 0 375 375;" xml:space="preserve">
<style type="text/css">
	.st0{fill:#FFFFFF;}
</style>
<g>
	<circle class="st0" cx="187.4" cy="187.5" r="187.5"/>
	<g>
		<g>
			<g>
				<path d="M187.4,84.8c-2.4,4-43.6,74.8-43.6,74.8"/>
				<path d="M146.7,161.3l-5.9-3.4c1.7-2.9,41.3-70.8,43.6-74.8h8.9C191,87,147.1,160.5,146.7,161.3z"/>
			</g>
			<g>
				<line x1="157.7" y1="132.6" x2="214.8" y2="132.6"/>
				<polygon points="157.7,136.1 157.7,129.2 219.2,129.2 214.9,136 				"/>
			</g>
			<g>
				<line x1="37.6" y1="159.5" x2="210.1" y2="159.5"/>
				<polygon points="210.1,162.9 37.6,162.9 43.3,156.1 210.1,156.1 				"/>
			</g>
			<g>
				<line x1="189.1" y1="133.6" x2="134.8" y2="235.2"/>
				<rect x="104.3" y="181" transform="matrix(0.4714 -0.8819 0.8819 0.4714 -77.0493 240.2997)" width="115.2" height="6.8"/>
			</g>
		</g>
		<path d="M232.6,181.2h-36.3l28.5-51.9l34.8-0.1L232.6,181.2z M207.9,174.3h20.6l19.9-38.4l-19.5,0.1L207.9,174.3z"/>
		<g>
			<polygon points="217.2,283.1 126.7,282.3 141.3,255.3 197.7,256.6 214.7,223.8 166.1,223.8 158.9,237.3 197.3,237.4 193.1,244.2 
				147.5,244.1 162,217 225.9,217 201.8,263.5 145.3,262.2 138.1,275.6 213,276.3 238.8,225.7 348.9,225.5 345.1,232.7 243,232.5 
							"/>
			<rect x="179.7" y="206.3" transform="matrix(0.4101 -0.912 0.912 0.4101 -79.2069 297.0141)" width="20.6" height="6.8"/>
			<polygon points="111.9,284.7 104.3,284.5 151.4,196.9 234.1,196.5 230,203.8 155.5,203.8 			"/>
			<rect x="200.1" y="185.6" transform="matrix(0.4708 -0.8823 0.8823 0.4708 -54.1177 287.8734)" width="25.6" height="6.8"/>
		</g>
		<g>
			<line x1="197.2" y1="159.5" x2="174.9" y2="201.6"/>
			<rect x="162.2" y="177.2" transform="matrix(0.4688 -0.8833 0.8833 0.4688 -60.6642 260.2474)" width="47.6" height="6.8"/>
		</g>
	</g>
</g>
</svg>
